<?xml version="1.0" encoding="UTF-8"?>
<svg version="1.1" xmlns="http://www.w3.org/2000/svg" width="326" height="326">
<path d="M0 0 C0.7897522 0.00021149 1.57950439 0.00042297 2.39318848 0.00064087 C15.45873987 0.03545814 27.879602 1.03045247 40.5625 4.375 C41.27132324 4.55691895 41.98014648 4.73883789 42.71044922 4.92626953 C85.12890575 16.13965315 120.10211475 44.04099262 142.5625 81.375 C145.52071268 86.57428289 148.11418084 91.91982574 150.5625 97.375 C151.10519531 98.57253906 151.64789063 99.77007812 152.20703125 101.00390625 C160.6030443 120.70796725 163.99031661 141.50141596 163.9375 162.8125 C163.93728851 163.6022522 163.93707703 164.39200439 163.93685913 165.20568848 C163.90204186 178.27123987 162.90704753 190.692102 159.5625 203.375 C159.38058105 204.08382324 159.19866211 204.79264648 159.01123047 205.52294922 C147.79784685 247.94140575 119.89650738 282.91461475 82.5625 305.375 C77.36321711 308.33321268 72.01767426 310.92668084 66.5625 313.375 C65.36496094 313.91769531 64.16742188 314.46039063 62.93359375 315.01953125 C43.22953275 323.4155443 22.43608404 326.80281661 1.125 326.75 C0.3352478 326.74978851 -0.45450439 326.74957703 -1.26818848 326.74935913 C-14.33373987 326.71454186 -26.754602 325.71954753 -39.4375 322.375 C-40.14632324 322.19308105 -40.85514648 322.01116211 -41.58544922 321.82373047 C-84.00390575 310.61034685 -118.97711475 282.70900738 -141.4375 245.375 C-144.39571268 240.17571711 -146.98918084 234.83017426 -149.4375 229.375 C-150.25154297 227.57869141 -150.25154297 227.57869141 -151.08203125 225.74609375 C-159.4780443 206.04203275 -162.86531661 185.24858404 -162.8125 163.9375 C-162.81228851 163.1477478 -162.81207703 162.35799561 -162.81185913 161.54431152 C-162.77704186 148.47876013 -161.78204753 136.057898 -158.4375 123.375 C-158.25558105 122.66617676 -158.07366211 121.95735352 -157.88623047 121.22705078 C-146.67284685 78.80859425 -118.77150738 43.83538525 -81.4375 21.375 C-76.23821711 18.41678732 -70.89267426 15.82331916 -65.4375 13.375 C-63.64119141 12.56095703 -63.64119141 12.56095703 -61.80859375 11.73046875 C-42.10453275 3.3344557 -21.31108404 -0.05281661 0 0 Z " fill="#030708" transform="translate(162.4375,-0.37499999999999994)"/>
<path d="M0 0 C3.64747346 2.74282305 6.84450847 5.71074968 10 9 C11.02037513 9.95882118 12.04110698 10.9172632 13.0625 11.875 C15 14 15 14 16 17 C13.70976802 21.76516008 10.33304927 25.83546039 6.5 29.4375 C-0.78086671 36.39549014 -4.97146806 45.09274538 -5.265625 55.1796875 C-5.27089112 57.07812484 -5.26545494 58.97661826 -5.25 60.875 C-5.25773438 61.81730469 -5.26546875 62.75960937 -5.2734375 63.73046875 C-5.23899355 76.18195817 -2.50600198 84.4411037 6.40234375 93.421875 C10.86880707 97.52358862 15.40789357 101.17947714 20.6015625 104.3203125 C22 106 22 106 22.42578125 109.1484375 C21.91296888 113.78727236 20.52558957 117.30380482 18.5625 121.5 C18.20414063 122.28246094 17.84578125 123.06492188 17.4765625 123.87109375 C12.0271121 135.50538751 5.52578719 146.34655358 -3 156 C-3.61230469 156.71800781 -4.22460938 157.43601562 -4.85546875 158.17578125 C-11.01358046 164.91796129 -18.98120792 170.1737235 -28.3125 170.6875 C-36.3389584 170.22354287 -44.12655393 166.9135003 -51.546875 164 C-65.66894795 158.93553246 -78.8862155 161.90884464 -92.41259766 167.15356445 C-99.37941512 169.79122903 -107.07363237 172.08103814 -114.28808594 169.03344727 C-116.35393098 167.84147061 -118.14644016 166.49976833 -120 165 C-120.93199219 164.30777344 -120.93199219 164.30777344 -121.8828125 163.6015625 C-145.71721607 144.59193698 -159.24348862 110.18923887 -164 81 C-164.18433594 79.92105469 -164.36867188 78.84210938 -164.55859375 77.73046875 C-167.33882002 54.23386619 -163.64161993 30.88506258 -148.7578125 11.91015625 C-139.62402849 1.98477762 -127.41433845 -4.55746561 -113.87890625 -5.5390625 C-112.10736914 -5.59329154 -110.33486275 -5.62115435 -108.5625 -5.625 C-107.61528076 -5.62951172 -106.66806152 -5.63402344 -105.69213867 -5.63867188 C-97.9997523 -5.4589882 -91.58158039 -3.68114596 -84.60571289 -0.49072266 C-73.49178013 4.47209472 -63.87780037 1.39920221 -52.6875 -2 C-34.82812647 -7.13087888 -16.72398263 -9.96928405 0 0 Z " fill="#FDFDFD" transform="translate(234,107)"/>
<path d="M0 0 C-0.2417705 13.42925246 -3.95116857 24.2606884 -12 35 C-12.598125 35.886875 -13.19625 36.77375 -13.8125 37.6875 C-19.42618755 43.62196969 -26.18749395 46.93515619 -34 49 C-35.2065625 49.3403125 -35.2065625 49.3403125 -36.4375 49.6875 C-40.61450129 50.1968904 -44.79789893 50.07343478 -49 50 C-49.63853062 36.02327423 -48.27375928 24.21789677 -39 13 C-28.55374137 1.7580804 -14.65080825 -0.33297291 0 0 Z " fill="#FAFAFA" transform="translate(210,51)"/>
<path d="M0 0 C0.66 0.33 1.32 0.66 2 1 C1.525625 1.763125 1.05125 2.52625 0.5625 3.3125 C-1.10106097 5.96410548 -1.10106097 5.96410548 -2 9 C-1.401875 8.773125 -0.80375 8.54625 -0.1875 8.3125 C0.534375 8.209375 1.25625 8.10625 2 8 C3.63671875 9.48046875 3.63671875 9.48046875 5 11 C0.93388179 12.15767947 -3.13704921 13.29603157 -7.21313477 14.41796875 C-8.59443258 14.80092188 -9.97437267 15.18881231 -11.3527832 15.58203125 C-31.36456129 21.28099021 -31.36456129 21.28099021 -41 17 C-40.175 16.21625 -39.35 15.4325 -38.5 14.625 C-35.77011494 12.36278736 -35.77011494 12.36278736 -36 10 C-35.01 9.67 -34.02 9.34 -33 9 C-32.67 6.69 -32.34 4.38 -32 2 C-31.67 2 -31.34 2 -31 2 C-31 4.64 -31 7.28 -31 10 C-14.19449444 8.44094713 -14.19449444 8.44094713 0 0 Z " fill="#141615" transform="translate(192,91)"/>
<path d="M0 0 C0.33 0 0.66 0 1 0 C1 2.64 1 5.28 1 8 C5.62 7.67 10.24 7.34 15 7 C13.68 7.99 12.36 8.98 11 10 C11 10.66 11 11.32 11 12 C9.68 12 8.36 12 7 12 C7 13.65 7 15.3 7 17 C5.27119018 17.05449838 3.54187288 17.09301688 1.8125 17.125 C0.84957031 17.14820312 -0.11335937 17.17140625 -1.10546875 17.1953125 C-4.12812778 16.9913544 -6.26769985 16.26874632 -9 15 C-8.175 14.21625 -7.35 13.4325 -6.5 12.625 C-3.77011494 10.36278736 -3.77011494 10.36278736 -4 8 C-3.01 7.67 -2.02 7.34 -1 7 C-0.67 4.69 -0.34 2.38 0 0 Z " fill="#181B1B" transform="translate(160,93)"/>
<path d="M0 0 C-1.375 2 -1.375 2 -3 4 C-3.66 4 -4.32 4 -5 4 C-5.33 4.99 -5.66 5.98 -6 7 C-10.0916861 8.80795432 -13.55719328 9.21156222 -18 9 C-17.34 8.67 -16.68 8.34 -16 8 C-16 7.01 -16 6.02 -16 5 C-14.68 5 -13.36 5 -12 5 C-12 4.34 -12 3.68 -12 3 C-13.98 3 -15.96 3 -18 3 C-18 2.67 -18 2.34 -18 2 C-11.88019467 0.59545452 -6.28260706 -0.23268915 0 0 Z " fill="#050807" transform="translate(183,100)"/>
<path d="M0 0 C0.99 0 1.98 0 3 0 C3.28875 1.11375 3.5775 2.2275 3.875 3.375 C4.69241329 7.00291092 4.69241329 7.00291092 7 9 C6.01 9.33 5.02 9.66 4 10 C1.73828125 8.56640625 1.73828125 8.56640625 -0.6875 6.5625 C-1.89986328 5.57443359 -1.89986328 5.57443359 -3.13671875 4.56640625 C-3.75160156 4.04949219 -4.36648437 3.53257812 -5 3 C-4.360625 2.690625 -3.72125 2.38125 -3.0625 2.0625 C-1.06389179 1.1654837 -1.06389179 1.1654837 0 0 Z " fill="#101213" transform="translate(247,200)"/>
<path d="M0 0 C1.32 0.66 2.64 1.32 4 2 C3.20335938 2.25394531 2.40671875 2.50789063 1.5859375 2.76953125 C-3.82305176 4.52646572 -9.0215803 6.23421128 -14 9 C-14.33 8.34 -14.66 7.68 -15 7 C-13.88671875 5.046875 -13.88671875 5.046875 -12 3 C-9.08203125 2.390625 -9.08203125 2.390625 -5.8125 2.25 C-4.18248047 2.16492188 -4.18248047 2.16492188 -2.51953125 2.078125 C-1.27236328 2.03945312 -1.27236328 2.03945312 0 2 C0 1.34 0 0.68 0 0 Z " fill="#171A1A" transform="translate(108,102)"/>
<path d="M0 0 C0.66 0 1.32 0 2 0 C2.33 0.99 2.66 1.98 3 3 C1.85546875 5.19140625 1.85546875 5.19140625 0.1875 7.5625 C-0.35519531 8.34753906 -0.89789063 9.13257812 -1.45703125 9.94140625 C-3 12 -3 12 -5 14 C-5.33 13.01 -5.66 12.02 -6 11 C-5.34 11 -4.68 11 -4 11 C-4 10.34 -4 9.68 -4 9 C-4.66 8.67 -5.32 8.34 -6 8 C-4.6875 5.5 -4.6875 5.5 -3 3 C-2.01 3 -1.02 3 0 3 C0 2.01 0 1.02 0 0 Z " fill="#151819" transform="translate(82,118)"/>
<path d="M0 0 C3.21338932 1.34962351 4.86536595 2.70522995 7.125 5.3125 C5.475 5.3125 3.825 5.3125 2.125 5.3125 C1.795 5.9725 1.465 6.6325 1.125 7.3125 C-0.855 5.0025 -2.835 2.6925 -4.875 0.3125 C-2.875 -0.6875 -2.875 -0.6875 0 0 Z " fill="#0B0D0D" transform="translate(239.875,194.6875)"/>
<path d="M0 0 C2.64 0.33 5.28 0.66 8 1 C7.67 1.99 7.34 2.98 7 4 C6.34 4 5.68 4 5 4 C5 4.66 5 5.32 5 6 C3.35 6 1.7 6 0 6 C0 4.02 0 2.04 0 0 Z " fill="#0E1112" transform="translate(175,269)"/>
<path d="M0 0 C0.66 0 1.32 0 2 0 C2 0.66 2 1.32 2 2 C1.01 2.495 1.01 2.495 0 3 C0 4.32 0 5.64 0 7 C-1.25 8.75 -1.25 8.75 -3 10 C-4.32 10 -5.64 10 -7 10 C-5.32598022 6.04322598 -2.86850715 3.15535787 0 0 Z " fill="#161918" transform="translate(240,136)"/>
<path d="M0 0 C0.99 0 1.98 0 3 0 C3 0.66 3 1.32 3 2 C4.11375 2.185625 4.11375 2.185625 5.25 2.375 C7.80141485 2.95486701 9.7267573 3.73708739 12 5 C11.34 6.32 10.68 7.64 10 9 C9.44570312 8.57847656 8.89140625 8.15695313 8.3203125 7.72265625 C7.59585938 7.17480469 6.87140625 6.62695312 6.125 6.0625 C5.40570313 5.51722656 4.68640625 4.97195312 3.9453125 4.41015625 C2.05642921 2.96035376 2.05642921 2.96035376 0 2 C0 1.34 0 0.68 0 0 Z " fill="#18191B" transform="translate(230,104)"/>
<path d="M0 0 C1.98 0 3.96 0 6 0 C5.34 1.65 4.68 3.3 4 5 C2.68 4.34 1.36 3.68 0 3 C0 2.01 0 1.02 0 0 Z M-3 3 C-2.01 3 -1.02 3 0 3 C0.33 4.32 0.66 5.64 1 7 C-0.32 5.68 -1.64 4.36 -3 3 Z " fill="#171B1C" transform="translate(244,110)"/>
<path d="M0 0 C0.66 0.66 1.32 1.32 2 2 C1.875 4 1.875 4 1 6 C-0.875 7.3125 -0.875 7.3125 -3 8 C-3.99 7.67 -4.98 7.34 -6 7 C-4.02 4.69 -2.04 2.38 0 0 Z " fill="#E3E3E5" transform="translate(174,61)"/>
<path d="M0 0 C0.33 0.99 0.66 1.98 1 3 C0.01 4.485 0.01 4.485 -1 6 C-0.69159401 8.15274948 -0.69159401 8.15274948 0 10 C-0.99 10.66 -1.98 11.32 -3 12 C-3 11.34 -3 10.68 -3 10 C-3.66 9.67 -4.32 9.34 -5 9 C-3.35 6.03 -1.7 3.06 0 0 Z " fill="#1A1C1D" transform="translate(247,238)"/>
<path d="M0 0 C0 0.99 0 1.98 0 3 C-1 4 -2 5 -3 6 C-3.71447643 8.10332891 -3.71447643 8.10332891 -4 10 C-5.65 9.67 -7.3 9.34 -9 9 C-6 6 -3 3 0 0 Z " fill="#2A2C2C" transform="translate(230,263)"/>
<path d="M0 0 C2.6875 0.875 2.6875 0.875 5 2 C3.68 3.32 2.36 4.64 1 6 C-0.32 5.34 -1.64 4.68 -3 4 C-3 3.34 -3 2.68 -3 2 C-2.01 1.34 -1.02 0.68 0 0 Z " fill="#1E1F21" transform="translate(87,111)"/>
<path d="M0 0 C1.98 0.66 3.96 1.32 6 2 C4.35 3.32 2.7 4.64 1 6 C0.34 5.34 -0.32 4.68 -1 4 C-0.625 1.875 -0.625 1.875 0 0 Z " fill="#101213" transform="translate(174,55)"/>
<path d="M0 0 C1.65 1.65 3.3 3.3 5 5 C4.67 5.99 4.34 6.98 4 8 C2 6.8125 2 6.8125 0 5 C-0.25 2.3125 -0.25 2.3125 0 0 Z " fill="#202223" transform="translate(96,252)"/>
<path d="M0 0 C0.66 0.33 1.32 0.66 2 1 C1.34 2.32 0.68 3.64 0 5 C-0.66 5 -1.32 5 -2 5 C-2.33 5.66 -2.66 6.32 -3 7 C-3 3.48283697 -2.17554415 2.62878252 0 0 Z " fill="#E2E3E3" transform="translate(87,117)"/>
<path d="M0 0 C0.66 0.33 1.32 0.66 2 1 C-0.25 3.5625 -0.25 3.5625 -3 6 C-4.32 5.67 -5.64 5.34 -7 5 C-4.69 3.35 -2.38 1.7 0 0 Z " fill="#D7D8D9" transform="translate(100,107)"/>
<path d="M0 0 C0.99 0.66 1.98 1.32 3 2 C1.68 3.32 0.36 4.64 -1 6 C-1.66 5.67 -2.32 5.34 -3 5 C-1.125 1.125 -1.125 1.125 0 0 Z " fill="#1D2021" transform="translate(199,84)"/>
</svg>
