<?xml version="1.0" encoding="UTF-8"?>
<svg version="1.1" xmlns="http://www.w3.org/2000/svg" width="1024" height="1024">
<path d="M0 0 C3.79806333 0.47504859 6.44472971 0.85147963 9.33984375 3.4140625 C10.21032349 4.17251465 10.21032349 4.17251465 11.09838867 4.94628906 C12.00874878 5.77725098 12.00874878 5.77725098 12.9375 6.625 C13.58501221 7.20475586 14.23252441 7.78451172 14.8996582 8.38183594 C16.95034479 10.23668852 18.97750609 12.11447614 21 14 C21.64775391 14.5971582 22.29550781 15.19431641 22.96289062 15.80957031 C46.65739619 37.83561778 64.8322764 69.16558157 66.12402344 102.16870117 C66.45115224 116.96320216 66.7429427 131.58891293 63 146 C62.50693359 147.91619141 62.50693359 147.91619141 62.00390625 149.87109375 C54.41196523 177.24356 38.37704997 202.84964794 20.171875 224.41015625 C8.39866875 238.44906946 -2.02573305 253.65147049 -12 269 C-12.55429687 269.84820313 -13.10859375 270.69640625 -13.6796875 271.5703125 C-21.79815746 284.51598081 -27.18769121 298.26217211 -31 313 C-31.23460937 313.80308594 -31.46921875 314.60617187 -31.7109375 315.43359375 C-37.00144151 335.10046736 -33.72053755 356.56247553 -23.734375 374.11328125 C-19.2634515 381.59912494 -14.17061986 388.48374863 -8.7734375 395.328125 C0.56824132 407.45785092 8.61660922 420.6094676 16 434 C16.99230897 435.67125722 17.9896953 437.33955964 19 439 C19.46148438 438.2471875 19.92296875 437.494375 20.3984375 436.71875 C21.79647952 434.44209659 23.1975446 432.16748825 24.6015625 429.89453125 C26.19328954 427.31661134 27.76937174 424.72999366 29.3359375 422.13671875 C36.80069822 409.86849367 45.13670911 398.39116363 54.5 387.5 C73.93643082 364.88280643 90.3502849 339.65579737 88.24560547 308.47900391 C86.64796622 292.35332899 81.99013637 276.75436421 77.12329102 261.36450195 C70.6310075 240.7341504 69.05713948 218.00720754 75 197 C75.5046419 195.11868676 76.00847322 193.237156 76.51171875 191.35546875 C80.36814507 177.14723217 84.6413379 163.06103994 89 149 C90.32 149 91.64 149 93 149 C94.89971342 151.36402037 96.50806644 153.64010226 98.125 156.1875 C99.09982826 157.66606884 100.07774551 159.14260529 101.05859375 160.6171875 C101.54956543 161.35807617 102.04053711 162.09896484 102.54638672 162.86230469 C104.64046539 165.94187352 106.88982176 168.88321763 109.1875 171.8125 C112.79999066 176.44141958 116.32578196 181.11628595 119.75 185.88671875 C121.48041675 188.28106276 123.23129827 190.65372728 125 193.01953125 C132.35129815 202.92053963 138.90909919 213.04285799 144.82910156 223.86328125 C145.86493664 225.75352908 146.92576855 227.62694482 147.9921875 229.5 C153.67935465 240.01494016 157.03652515 251.45605326 160 263 C160.20826416 263.7938208 160.41652832 264.5876416 160.63110352 265.40551758 C162.60359038 274.28478089 162.33649822 283.38455972 162.31567383 292.43237305 C162.3125184 295.29579943 162.33601964 298.15818538 162.36132812 301.02148438 C162.40927741 314.60726192 160.91175225 326.78488874 156.1875 339.625 C155.92960693 340.33736816 155.67171387 341.04973633 155.40600586 341.78369141 C151.05181029 353.52614417 145.10012577 365.3601809 137 375 C136.34 375 135.68 375 135 375 C134.73678955 375.58700684 134.4735791 376.17401367 134.20239258 376.77880859 C123.93610416 395.74382221 98.57179012 408.76013296 81.21337891 420.17486572 C77.31132948 422.74179567 73.41348146 425.31494982 69.51950073 427.894104 C67.62685943 429.14496438 65.72970318 430.38874169 63.83227539 431.63232422 C50.1023144 440.69048973 36.1866659 450.56215451 25.54296875 463.203125 C25.03378906 463.79609375 24.52460937 464.3890625 24 465 C23.54238281 465.57234375 23.08476563 466.1446875 22.61328125 466.734375 C21 468 21 468 18.60546875 468.49609375 C14.88683242 467.78804755 13.6922515 465.94325182 11.3125 463.0625 C8.55993989 459.52719654 8.55993989 459.52719654 5 457 C5 456.34 5 455.68 5 455 C4.44828125 454.76152344 3.8965625 454.52304687 3.328125 454.27734375 C0.44785877 452.69706345 -1.77404041 450.72377758 -4.25 448.5625 C-16.45474801 438.19015564 -30.22912893 429.86540134 -43.62207031 421.13647461 C-51.17128955 416.21179726 -58.67624106 411.25673815 -66 406 C-67.47339844 404.95392578 -67.47339844 404.95392578 -68.9765625 403.88671875 C-80.03711379 395.84138235 -90.37013121 386.64412082 -99 376 C-99.65355469 375.195625 -100.30710937 374.39125 -100.98046875 373.5625 C-109.24300819 362.8227969 -114.56303123 350.96277552 -118.875 338.1875 C-119.30437866 336.91737061 -119.30437866 336.91737061 -119.74243164 335.62158203 C-123.72591119 323.28201479 -124.34550217 311.60942766 -124.31567383 298.73242188 C-124.31252993 295.90194564 -124.33597807 293.07253399 -124.36132812 290.2421875 C-124.44404352 266.62726393 -119.29813362 245.70859094 -108 225 C-107.44441406 223.97390625 -106.88882812 222.9478125 -106.31640625 221.890625 C-98.75504326 208.47237892 -89.53785509 196.0630545 -80 184 C-79.36964844 183.19820312 -78.73929687 182.39640625 -78.08984375 181.5703125 C-69.2177062 170.38124731 -60.08205401 159.39569129 -50.78222656 148.56054688 C-47.0850558 144.20603968 -43.78944039 139.65779151 -40.55859375 134.94921875 C-40.04425781 134.30597656 -39.52992188 133.66273438 -39 133 C-38.34 133 -37.68 133 -37 133 C-36.72542969 132.41694092 -36.45085937 131.83388184 -36.16796875 131.2331543 C-35.0330163 129.06312711 -33.78361394 127.22354338 -32.3125 125.26953125 C-2.76599077 85.52013756 6.04236701 49.15851242 0 0 Z " fill="#F43671" transform="translate(493,269)"/>
<path d="M0 0 C0.33 0.66 0.66 1.32 1 2 C-0.06729767 3.90045882 -1.23422864 5.74508258 -2.4375 7.5625 C-10.7227381 20.56457247 -16.14887055 34.11209713 -20 49 C-20.23460937 49.80308594 -20.46921875 50.60617187 -20.7109375 51.43359375 C-26.00144151 71.10046736 -22.72053755 92.56247553 -12.734375 110.11328125 C-8.2634515 117.59912494 -3.17061986 124.48374863 2.2265625 131.328125 C11.56824132 143.45785092 19.61660922 156.6094676 27 170 C27.99230897 171.67125722 28.9896953 173.33955964 30 175 C30.49628906 174.18917969 30.99257813 173.37835937 31.50390625 172.54296875 C35.93616063 165.31847821 40.42443605 158.13502004 45 151 C45.33 151.66 45.66 152.32 46 153 C45.05957031 155.07543945 45.05957031 155.07543945 43.578125 157.61328125 C43.04703125 158.53173828 42.5159375 159.45019531 41.96875 160.39648438 C41.4015625 161.35876953 40.834375 162.32105469 40.25 163.3125 C39.69828125 164.26318359 39.1465625 165.21386719 38.578125 166.19335938 C37.06174767 168.80145548 35.53651472 171.40372237 34 174 C33.4853418 174.9283667 32.97068359 175.8567334 32.44042969 176.81323242 C31.96508789 177.53486572 31.48974609 178.25649902 31 179 C30.34 179 29.68 179 29 179 C26.36 174.05 23.72 169.1 21 164 C20.01 164.99 19.02 165.98 18 167 C17.67 165.68 17.34 164.36 17 163 C16.34 163 15.68 163 15 163 C14.89042969 162.40832031 14.78085937 161.81664062 14.66796875 161.20703125 C13.732075 156.54278029 12.67286745 153.00930117 10 149 C10 148.34 10 147.68 10 147 C9.34 147 8.68 147 8 147 C6.66796875 145.27734375 6.66796875 145.27734375 5.1875 142.9375 C4.66027344 142.1228125 4.13304687 141.308125 3.58984375 140.46875 C3.06519531 139.6540625 2.54054688 138.839375 2 138 C0.39856642 135.59130427 -1.23862634 133.29957116 -3 131 C-3.66 131 -4.32 131 -5 131 C-5.495 128.03 -5.495 128.03 -6 125 C-6.66 125 -7.32 125 -8 125 C-9.09741211 123.51879883 -9.09741211 123.51879883 -10.27734375 121.45703125 C-10.92413086 120.34038086 -10.92413086 120.34038086 -11.58398438 119.20117188 C-12.03064453 118.41291016 -12.47730469 117.62464844 -12.9375 116.8125 C-13.82155393 115.27730882 -14.70566706 113.74215173 -15.58984375 112.20703125 C-16.00685547 111.47162109 -16.42386719 110.73621094 -16.85351562 109.97851562 C-17.75660737 108.4200285 -18.72456386 106.89912507 -19.71484375 105.39453125 C-24.02725538 97.35955152 -24.55479271 85.98762208 -25 77 C-25.04125 76.22914063 -25.0825 75.45828125 -25.125 74.6640625 C-25.80738366 48.98937717 -16.04623215 20.15934862 0 0 Z " fill="#EB9FC3" transform="translate(482,533)"/>
<path d="M0 0 C0.33 0 0.66 0 1 0 C2.43511254 23.06810524 -9.32634164 50.53713385 -24 68 C-24.66 68 -25.32 68 -26 68 C-26.26321045 68.58700684 -26.5264209 69.17401367 -26.79760742 69.77880859 C-36.74187619 88.1489522 -61.18514246 100.99677313 -78 112 C-78.66 111.67 -79.32 111.34 -80 111 C-73.43723889 106.16686378 -66.82851569 101.4511806 -60 97 C-60.495 96.01 -60.495 96.01 -61 95 C-60.01 94.505 -60.01 94.505 -59 94 C-58.27306096 92.02111039 -57.60183749 90.02045442 -57 88 C-55.02 88 -53.04 88 -51 88 C-50.34 86.68 -49.68 85.36 -49 84 C-47.68 84.33 -46.36 84.66 -45 85 C-44.938125 84.401875 -44.87625 83.80375 -44.8125 83.1875 C-43.66728131 80.10421892 -41.82585053 79.60559689 -39 78 C-37.6696875 76.6696875 -37.6696875 76.6696875 -36.3125 75.3125 C-35.1678125 74.1678125 -35.1678125 74.1678125 -34 73 C-33.34 73 -32.68 73 -32 73 C-31.690625 72.38125 -31.38125 71.7625 -31.0625 71.125 C-30.375 69.75 -29.6875 68.375 -29 67 C-28.34 67 -27.68 67 -27 67 C-27 65.68 -27 64.36 -27 63 C-26.34 63 -25.68 63 -25 63 C-25 62.01 -25 61.02 -25 60 C-24.01 60 -23.02 60 -22 60 C-21.73058594 59.28457031 -21.46117187 58.56914063 -21.18359375 57.83203125 C-19.98988565 54.97579901 -18.59215958 52.37705412 -17.0625 49.6875 C-14.58093669 45.20976473 -12.64460327 40.84244297 -11 36 C-10.34 36 -9.68 36 -9 36 C-9.33 32.7 -9.66 29.4 -10 26 C-9.34 26 -8.68 26 -8 26 C-8.495 24.515 -8.495 24.515 -9 23 C-8.67 22.34 -8.34 21.68 -8 21 C-8.99 20.01 -8.99 20.01 -10 19 C-9.34 17.68 -8.68 16.36 -8 15 C-7.34 15 -6.68 15 -6 15 C-5.67 14.34 -5.34 13.68 -5 13 C-4.01 13 -3.02 13 -2 13 C-1.34 8.71 -0.68 4.42 0 0 Z " fill="#D46889" transform="translate(654,576)"/>
<path d="M0 0 C0.99 0.495 0.99 0.495 2 1 C0.83766846 1.77694214 0.83766846 1.77694214 -0.34814453 2.56958008 C-20.69651384 16.07190695 -20.69651384 16.07190695 -40 31 C-40.77730469 31.63808594 -41.55460938 32.27617188 -42.35546875 32.93359375 C-46.45154798 36.38413704 -50.00793487 40.10681101 -53.45703125 44.203125 C-53.96621094 44.79609375 -54.47539063 45.3890625 -55 46 C-55.45761719 46.57234375 -55.91523437 47.1446875 -56.38671875 47.734375 C-58 49 -58 49 -60.39453125 49.49609375 C-64.11316758 48.78804755 -65.3077485 46.94325182 -67.6875 44.0625 C-70.44006011 40.52719654 -70.44006011 40.52719654 -74 38 C-74 37.34 -74 36.68 -74 36 C-74.55171875 35.76152344 -75.1034375 35.52304687 -75.671875 35.27734375 C-78.55214123 33.69706345 -80.77404041 31.72377758 -83.25 29.5625 C-88.81700449 24.78139422 -94.71629533 20.63013156 -100.83105469 16.58032227 C-105.90218145 13.19563709 -105.90218145 13.19563709 -107 11 C-101.60003452 12.7829108 -97.54260187 16.13205589 -93.08398438 19.54296875 C-89.68348905 22.06484961 -88.36255172 23 -84 23 C-81.4375 25.375 -81.4375 25.375 -79 28 C-78.01 28.66 -77.02 29.32 -76 30 C-76 30.66 -76 31.32 -76 32 C-75.43410156 32.2371875 -74.86820312 32.474375 -74.28515625 32.71875 C-71.49885254 34.28098524 -69.64667486 36.19737443 -67.4375 38.5 C-65.0038015 41.02809153 -62.92990599 43.04672934 -60 45 C-59.896875 44.401875 -59.79375 43.80375 -59.6875 43.1875 C-59 41 -59 41 -57.4375 39.625 C-55.66863275 37.96237867 -55.66863275 37.96237867 -55.8125 34.8125 C-55.874375 33.884375 -55.93625 32.95625 -56 32 C-53.36 32.33 -50.72 32.66 -48 33 C-48 30.03 -48 27.06 -48 24 C-45.75390625 24.03255208 -43.5078125 24.06510417 -41.26171875 24.09765625 C-38.83138666 24.09657855 -38.83138666 24.09657855 -36 23 C-36.99 21.02 -37.98 19.04 -39 17 C-32.25 17.75 -32.25 17.75 -30 20 C-29.22305786 19.46427368 -29.22305786 19.46427368 -28.43041992 18.91772461 C-11.66396897 7.3685779 -11.66396897 7.3685779 -4.4375 2.625 C-3.61121094 2.08101562 -2.78492188 1.53703125 -1.93359375 0.9765625 C-1.29550781 0.65429688 -0.65742187 0.33203125 0 0 Z " fill="#DB78A1" transform="translate(572,688)"/>
<path d="M0 0 C6.75461151 1.12576859 6.75461151 1.12576859 9.33984375 3.4140625 C9.92016357 3.91969727 10.5004834 4.42533203 11.09838867 4.94628906 C11.70529541 5.50026367 12.31220215 6.05423828 12.9375 6.625 C13.90876831 7.49463379 13.90876831 7.49463379 14.8996582 8.38183594 C16.95034479 10.23668852 18.97750609 12.11447614 21 14 C21.97163086 14.8957373 21.97163086 14.8957373 22.96289062 15.80957031 C43.40741501 34.81448533 63.7808965 64.26638922 65.10302734 93.25927734 C65.10513097 95.17315855 65.05732701 97.0869764 65 99 C64.67 99 64.34 99 64 99 C63.74605469 97.74445313 63.49210938 96.48890625 63.23046875 95.1953125 C59.90289195 78.91703461 55.1196011 65.00481609 47.5625 50.1875 C46 47 46 47 46 45 C45.34 45 44.68 45 44 45 C44.495 47.475 44.495 47.475 45 50 C42.03 50.495 42.03 50.495 39 51 C39.33 48.03 39.66 45.06 40 42 C37.525 42.495 37.525 42.495 35 43 C33.875 40.6875 33.875 40.6875 33 38 C33.66 37.01 34.32 36.02 35 35 C33.68 34.67 32.36 34.34 31 34 C31.2475 33.46375 31.495 32.9275 31.75 32.375 C32.05939099 29.43578559 31.20108428 28.09503087 29.48046875 25.7578125 C21.71877209 16.54207768 12.23280303 8.36093161 2 2 C2.144375 2.71542969 2.28875 3.43085938 2.4375 4.16796875 C3.86986796 11.85699952 4.2267563 19.18950511 4 27 C3.67 27 3.34 27 3 27 C2.01 18.09 1.02 9.18 0 0 Z " fill="#FBB8C9" transform="translate(493,269)"/>
<path d="M0 0 C0.33 0 0.66 0 1 0 C1.15855469 1.1859375 1.31710937 2.371875 1.48046875 3.59375 C3.01862029 14.48757531 5.32812162 24.63302476 9 35 C9.29519531 35.87527344 9.59039062 36.75054688 9.89453125 37.65234375 C13.84878579 48.50397378 20.18341027 58.73088064 27 68 C28.98 67.505 28.98 67.505 31 67 C32.32 69.64 33.64 72.28 35 75 C35.94875 74.67 36.8975 74.34 37.875 74 C41 73 41 73 43 73 C43 74.65 43 76.3 43 78 C42.34 78 41.68 78 41 78 C41 78.66 41 79.32 41 80 C43.31 80 45.62 80 48 80 C48 80.66 48 81.32 48 82 C48.66 82 49.32 82 50 82 C50.04125 83.051875 50.0825 84.10375 50.125 85.1875 C51.2775357 90.20926268 53.01217509 90.94549581 57 94 C57 94.99 57 95.98 57 97 C57.99 97.33 58.98 97.66 60 98 C59.01 98.495 59.01 98.495 58 99 C45.83400416 90.31939756 34.4439871 80.64825818 25 69 C24.34644531 68.195625 23.69289063 67.39125 23.01953125 66.5625 C8.97099527 48.30212054 -0.90423941 23.15857602 0 0 Z " fill="#F895C5" transform="translate(369,576)"/>
<path d="M0 0 C0.33 0 0.66 0 1 0 C1.60755744 25.38239965 -3.14736262 48.2756493 -15.73046875 70.54296875 C-17.16511809 73.11245921 -17.16511809 73.11245921 -18 76.625 C-19.42483504 81.43381826 -22.09381258 84.95146192 -25 89 C-25.83772215 90.18194979 -26.67492628 91.36426684 -27.51171875 92.546875 C-29.99239708 96.04258234 -32.48730919 99.52721046 -35 103 C-35.55300781 103.79792969 -36.10601562 104.59585938 -36.67578125 105.41796875 C-37.11277344 105.94003906 -37.54976563 106.46210938 -38 107 C-38.66 107 -39.32 107 -40 107 C-40.226875 107.763125 -40.45375 108.52625 -40.6875 109.3125 C-42 112 -42 112 -44.328125 113.3671875 C-47.32204567 115.19680568 -48.91333997 117.05047739 -51.0625 119.8125 C-54.80192607 124.52468218 -58.63556724 129.13021109 -62.5625 133.6875 C-63.0994751 134.31180908 -63.6364502 134.93611816 -64.18969727 135.5793457 C-65.45870564 137.05383812 -66.72918777 138.52706197 -68 140 C-68 135.69800422 -65.42922597 133.73279508 -62.6875 130.6875 C-58.27192965 125.6681193 -53.99126491 120.58079038 -49.875 115.3125 C-49.41440186 114.7249292 -48.95380371 114.1373584 -48.47924805 113.53198242 C-46.5607524 111.06853741 -44.73290749 108.59936123 -43 106 C-42.34 106 -41.68 106 -41 106 C-40.72542969 105.41694092 -40.45085937 104.83388184 -40.16796875 104.2331543 C-39.0330163 102.06312711 -37.78361394 100.22354338 -36.3125 98.26953125 C-13.59541489 67.70787159 -2.05485365 38.1229427 0 0 Z " fill="#EEAAC0" transform="translate(497,296)"/>
<path d="M0 0 C0.66 0 1.32 0 2 0 C3.44074715 1.782129 4.80510649 3.62660276 6.125 5.5 C7.21167969 7.03140625 7.21167969 7.03140625 8.3203125 8.59375 C8.87460937 9.3878125 9.42890625 10.181875 10 11 C9.67 11.66 9.34 12.32 9 13 C7.5 11.625 7.5 11.625 6 10 C6 9.34 6 8.68 6 8 C5.34 8 4.68 8 4 8 C3.731875 8.7425 3.46375 9.485 3.1875 10.25 C2.0520938 12.87936173 0.72989641 14.74361338 -1 17 C-1.33 17.99 -1.66 18.98 -2 20 C-2.66 20 -3.32 20 -4 20 C-3.91621094 20.59167969 -3.83242188 21.18335938 -3.74609375 21.79296875 C-3.18136358 26.17498892 -2.97915499 29.66140871 -4 34 C-3.67 34.99 -3.34 35.98 -3 37 C-3.66 37 -4.32 37 -5 37 C-4.67 39.31 -4.34 41.62 -4 44 C-5.32 42.68 -6.64 41.36 -8 40 C-9.59996164 44.73321984 -11 48.90295649 -11 53.9375 C-11 57 -11 57 -12.4375 58.625 C-13.2109375 59.305625 -13.2109375 59.305625 -14 60 C-14.72197162 62.60611077 -14.72197162 62.60611077 -15 65 C-15.33 65 -15.66 65 -16 65 C-16.38302441 57.3873898 -15.00282435 50.94859348 -13 43.625 C-12.6911084 42.46556885 -12.3822168 41.3061377 -12.06396484 40.11157227 C-2.7314372 5.4628744 -2.7314372 5.4628744 0 0 Z " fill="#E63548" transform="translate(583,420)"/>
<path d="M0 0 C2.01136276 2.55991624 3.62845496 5.04590299 5 8 C6.32 7.67 7.64 7.34 9 7 C8.814375 7.721875 8.62875 8.44375 8.4375 9.1875 C7.83247571 11.98785845 7.83247571 11.98785845 8.5625 14.6875 C8.706875 15.450625 8.85125 16.21375 9 17 C8 18 7 19 6 20 C6.556875 20.99 6.556875 20.99 7.125 22 C8.36409128 26.24831296 7.2812463 28.80035936 6 33 C6.66 33.33 7.32 33.66 8 34 C8.40729228 36.32156597 8.74438677 38.6568787 9 41 C8.34 41 7.68 41 7 41 C7 41.66 7 42.32 7 43 C7.66 43 8.32 43 9 43 C8.88490339 44.41750563 8.75746342 45.83401169 8.625 47.25 C8.55539062 48.03890625 8.48578125 48.8278125 8.4140625 49.640625 C7.97416233 52.14722596 7.35175517 53.84822646 6 56 C5.01 56.66 4.02 57.32 3 58 C0.31280608 62.0712336 -1.62090423 66.03276616 -1 71 C-1.66 70.34 -2.32 69.68 -3 69 C-2.61480393 64.10078746 -1.40349861 59.57052844 0 54.875 C4.64310807 39.27279126 4.23640227 22.91094524 0.65625 7.08203125 C0 4 0 4 0 0 Z " fill="#EB295B" transform="translate(579,552)"/>
<path d="M0 0 C4.06498881 1.37184347 6.67396561 3.22068459 9.8125 6.125 C10.99779297 7.21167969 10.99779297 7.21167969 12.20703125 8.3203125 C12.79871094 8.87460937 13.39039063 9.42890625 14 10 C9.62415165 10 7.38292415 7.5531503 4 5 C4.07001221 5.7528125 4.14002441 6.505625 4.2121582 7.28125 C4.91761795 15.50475251 5.18628259 23.68809888 5.18530273 31.93847656 C5.18749814 33.99825469 5.20577378 36.0575026 5.22460938 38.1171875 C5.27440227 49.45929876 4.36790973 60.20389038 0.375 70.875 C-1.47925356 75.83753989 -2.25796117 79.69143059 -2 85 C-3.485 85.495 -3.485 85.495 -5 86 C-4.773125 86.556875 -4.54625 87.11375 -4.3125 87.6875 C-3.87020324 90.96049601 -5.06487514 92.41983352 -7 95 C-7.66 95 -8.32 95 -9 95 C-9.66 96.65 -10.32 98.3 -11 100 C-11.99 100 -12.98 100 -14 100 C-14.33 100.99 -14.66 101.98 -15 103 C-14.40395608 98.44760662 -12.4699916 94.90881637 -10.3125 90.9375 C4.67430589 62.24489848 4.60278197 31.22427768 0 0 Z " fill="#C84A6A" transform="translate(494,270)"/>
<path d="M0 0 C0.66 0 1.32 0 2 0 C3.18359375 1.64453125 3.18359375 1.64453125 4.4375 3.8125 C5.66663353 5.92784266 6.72834451 7.73549334 8.484375 9.4453125 C18.24994583 19.4625733 25.11660686 44.18577933 25.1875 57.75 C25.125625 58.8225 25.06375 59.895 25 61 C24.67 61 24.34 61 24 61 C23.74605469 59.86820313 23.49210938 58.73640625 23.23046875 57.5703125 C22.88343748 56.08839517 22.53574687 54.60663214 22.1875 53.125 C22.02185547 52.37863281 21.85621094 51.63226562 21.68554688 50.86328125 C20.63150798 46.11148872 20.63150798 46.11148872 17 43 C16.45524022 40.40729301 16.07599851 37.99548055 15.8125 35.375 C15.6897168 34.31539062 15.6897168 34.31539062 15.56445312 33.234375 C15.36419275 31.4909317 15.18050599 29.74559914 15 28 C13.35 27.67 11.7 27.34 10 27 C9.855625 25.865625 9.71125 24.73125 9.5625 23.5625 C9.38828522 20.19222799 9.38828522 20.19222799 8 19 C7.85884839 16.32941149 7.95752893 13.67567762 8 11 C7.05125 11.04125 6.1025 11.0825 5.125 11.125 C2 11 2 11 0 9 C0 6 0 6 1 5 C0.67 5 0.34 5 0 5 C0 3.35 0 1.7 0 0 Z " fill="#C13249" transform="translate(628,485)"/>
<path d="M0 0 C1.32 0 2.64 0 4 0 C5.78177979 2.14757564 7.26020167 4.16582085 8.75 6.5 C9.16121094 7.12003906 9.57242188 7.74007813 9.99609375 8.37890625 C11.00974629 9.91117171 12.00651646 11.45458117 13 13 C12.67 13.66 12.34 14.32 12 15 C10.4941255 13.21326795 8.9954515 11.42046492 7.5 9.625 C6.6646875 8.62726563 5.829375 7.62953125 4.96875 6.6015625 C3 4 3 4 3 2 C2.34 2 1.68 2 1 2 C0.76216797 3.00027222 0.76216797 3.00027222 0.51953125 4.02075195 C-0.96889036 10.13633509 -2.60298575 16.19233192 -4.375 22.23046875 C-4.58713135 22.95638214 -4.7992627 23.68229553 -5.01782227 24.4302063 C-5.89520541 27.42944675 -6.77380227 30.42822851 -7.66601562 33.4230957 C-11.90710012 47.68984123 -15.62114931 62.06456551 -15.375 77.0625 C-15.36629883 77.98804688 -15.35759766 78.91359375 -15.34863281 79.8671875 C-15.09045505 92.10735284 -12.40400888 103.48026218 -8.671875 115.109375 C-7.98973192 118.04417663 -8.16799194 119.20715133 -9 122 C-10.15387809 118.14819582 -11.29664728 114.29318031 -12.4375 110.4375 C-12.76298828 109.35146484 -13.08847656 108.26542969 -13.42382812 107.14648438 C-18.93085356 88.46801667 -19.32361146 66.81824594 -14 48 C-13.4953581 46.11868676 -12.99152678 44.237156 -12.48828125 42.35546875 C-8.63185493 28.14723217 -4.3586621 14.06103994 0 0 Z " fill="#FCD6DB" transform="translate(582,418)"/>
<path d="M0 0 C0 3.71195116 -0.71315023 4.0978875 -3.26171875 6.66015625 C-3.96135742 7.36615967 -4.66099609 8.07216309 -5.38183594 8.79956055 C-6.14270508 9.54633057 -6.90357422 10.29310059 -7.6875 11.0625 C-8.85780762 12.21649292 -8.85780762 12.21649292 -10.05175781 13.39379883 C-22.42220443 25.42822983 -36.60285763 34.57886613 -51 44 C-51.66 43.67 -52.32 43.34 -53 43 C-46.43723889 38.16686378 -39.82851569 33.4511806 -33 29 C-33.33 28.34 -33.66 27.68 -34 27 C-33.34 26.67 -32.68 26.34 -32 26 C-31.27306096 24.02111039 -30.60183749 22.02045442 -30 20 C-28.02 20 -26.04 20 -24 20 C-23.34 18.68 -22.68 17.36 -22 16 C-20.68 16.33 -19.36 16.66 -18 17 C-17.9071875 16.1028125 -17.9071875 16.1028125 -17.8125 15.1875 C-16.66728131 12.10421892 -14.82585053 11.60559689 -12 10 C-11.175 9.175 -10.35 8.35 -9.5 7.5 C-7.11845195 5.11845195 -4.90795514 3.65046102 -2 2 C-1.34 1.34 -0.68 0.68 0 0 Z " fill="#E99BB8" transform="translate(627,644)"/>
<path d="M0 0 C0.66 0.33 1.32 0.66 2 1 C1.17798096 1.55461914 0.35596191 2.10923828 -0.4909668 2.68066406 C-3.5581765 4.7509448 -6.62347957 6.82403357 -9.68823242 8.89794922 C-11.0116119 9.7929151 -12.33549818 10.68713208 -13.65991211 11.58056641 C-15.57020626 12.86942226 -17.47862476 14.16101484 -19.38671875 15.453125 C-20.26670784 16.04556 -20.26670784 16.04556 -21.16447449 16.64996338 C-23.77718059 18.42265722 -26.29526283 20.23780628 -28.75512695 22.21899414 C-31.10900567 24.08648139 -33.21628038 24.92086819 -36 26 C-41.12327187 29.48277215 -45.74189798 33.50533676 -50 38 C-51.66666667 39.66666667 -53.33333333 41.33333333 -55 43 C-54.43613403 39.65249187 -53.5770877 38.3904733 -50.9375 36.3125 C-48.84968474 34.37417032 -48.07564945 33.45764175 -47.60546875 30.61328125 C-47.62299428 28.38052852 -47.7340639 26.21613418 -48 24 C-47.38511719 24.01160156 -46.77023437 24.02320313 -46.13671875 24.03515625 C-44.92435547 24.04869141 -44.92435547 24.04869141 -43.6875 24.0625 C-42.88699219 24.07410156 -42.08648438 24.08570313 -41.26171875 24.09765625 C-38.83138666 24.09657855 -38.83138666 24.09657855 -36 23 C-36.99 21.02 -37.98 19.04 -39 17 C-32.25 17.75 -32.25 17.75 -30 20 C-29.48203857 19.64284912 -28.96407715 19.28569824 -28.43041992 18.91772461 C-11.66396897 7.3685779 -11.66396897 7.3685779 -4.4375 2.625 C-3.61121094 2.08101562 -2.78492188 1.53703125 -1.93359375 0.9765625 C-0.97646484 0.49316406 -0.97646484 0.49316406 0 0 Z " fill="#EEA9C5" transform="translate(572,688)"/>
<path d="M0 0 C0.33 0.66 0.66 1.32 1 2 C0.360625 2.9075 -0.27875 3.815 -0.9375 4.75 C-4.34652355 10.2442682 -3.31043123 16.7827523 -3 23 C-3.99 23 -4.98 23 -6 23 C-6 23.66 -6 24.32 -6 25 C-7.9375 25.5625 -7.9375 25.5625 -10 26 C-10.33 25.67 -10.66 25.34 -11 25 C-16.6611146 38.80476717 -19.28572174 53.22292139 -21 68 C-21.33 68 -21.66 68 -22 68 C-23.32986175 43.61920129 -12.76307206 20.11150748 0 0 Z " fill="#F49CBD" transform="translate(391,484)"/>
<path d="M0 0 C0 3.53750029 -0.46774398 3.80825894 -2.8125 6.25 C-5.3386436 9.05682622 -6.63235308 11.47296874 -7.98828125 15.015625 C-9.86479975 18.69620955 -12.72048276 21.67099447 -15.3828125 24.8046875 C-18.93950557 29.05364114 -22.10827303 33.59759891 -25.28125 38.13671875 C-28.67660531 42.89220177 -28.67660531 42.89220177 -32 44 C-33.20882096 46.00016466 -33.20882096 46.00016466 -34 48 C-34 39.06225619 -23.73429934 29.57630499 -18.31152344 22.67919922 C-16.9882728 20.98498516 -15.68296919 19.27839268 -14.3828125 17.56640625 C-9.79096321 11.52449929 -5.11904447 5.61060835 0 0 Z " fill="#E89CB6" transform="translate(427,436)"/>
<path d="M0 0 C0.66 0 1.32 0 2 0 C3.33333333 1.33333333 4.66666667 2.66666667 6 4 C6.79688232 4.44835205 7.59376465 4.8967041 8.41479492 5.35864258 C11.20674108 7.13126077 12.63142056 8.77646414 14.55078125 11.44921875 C15.47407227 12.72055664 15.47407227 12.72055664 16.41601562 14.01757812 C17.04185547 14.89865234 17.66769531 15.77972656 18.3125 16.6875 C18.95767578 17.58017578 19.60285156 18.47285156 20.26757812 19.39257812 C21.85340787 21.58924599 23.43044409 23.79168981 25 26 C24.67 26.66 24.34 27.32 24 28 C18.42548201 21.16528512 13.12882846 14.17490364 8 7 C10.20014946 11.44751242 12.27472711 15.62951501 16 19 C13 20 13 20 10 20 C9.34 17.36 8.68 14.72 8 12 C5.69 12 3.38 12 1 12 C0.957279 10.33388095 0.95936168 8.66617115 1 7 C1.33 6.67 1.66 6.34 2 6 C1.01 5.34 0.02 4.68 -1 4 C-0.67 2.68 -0.34 1.36 0 0 Z " fill="#F66A79" transform="translate(587,428)"/>
<path d="M0 0 C3.29119517 1.09706506 3.77178431 1.66553677 5.7421875 4.3515625 C6.25136719 5.03863281 6.76054688 5.72570312 7.28515625 6.43359375 C8.07212891 7.51833984 8.07212891 7.51833984 8.875 8.625 C9.65037109 9.67494141 9.65037109 9.67494141 10.44140625 10.74609375 C11.47135804 12.14444139 12.4955895 13.54702128 13.51391602 14.95385742 C14.48686667 16.29348276 15.4713705 17.62481081 16.46850586 18.9465332 C19.635177 23.19843417 20.6820868 25.80741766 21 31 C17.24480943 30.48792856 14.33311475 29.7824918 11 28 C11.03480469 27.1646875 11.03480469 27.1646875 11.0703125 26.3125 C11.19978817 20.83752897 10.76642119 16.20629403 9 11 C8.01 10.67 7.02 10.34 6 10 C4.39453125 7.71484375 4.39453125 7.71484375 2.8125 4.9375 C2.28269531 4.01839844 1.75289062 3.09929687 1.20703125 2.15234375 C0.60955078 1.08693359 0.60955078 1.08693359 0 0 Z " fill="#F33347" transform="translate(593,434)"/>
<path d="M0 0 C2.01136276 2.55991624 3.62845496 5.04590299 5 8 C6.32 7.67 7.64 7.34 9 7 C8.814375 7.721875 8.62875 8.44375 8.4375 9.1875 C7.83247571 11.98785845 7.83247571 11.98785845 8.5625 14.6875 C8.706875 15.450625 8.85125 16.21375 9 17 C8.34 17.66 7.68 18.32 7 19 C6.67 19 6.34 19 6 19 C5.98018066 19.73524902 5.96036133 20.47049805 5.93994141 21.22802734 C5.8437501 24.61066627 5.73445743 27.99276537 5.625 31.375 C5.5940625 32.53128906 5.563125 33.68757812 5.53125 34.87890625 C5.05517241 48.92319526 5.05517241 48.92319526 3 55 C2.01 55.495 2.01 55.495 1 56 C1.144375 55.32839844 1.28875 54.65679688 1.4375 53.96484375 C4.31466852 38.4800826 4.12823499 22.43270563 0.65625 7.08203125 C0 4 0 4 0 0 Z " fill="#CC2B4E" transform="translate(579,552)"/>
<path d="M0 0 C6.75461151 1.12576859 6.75461151 1.12576859 9.33984375 3.4140625 C9.92064697 3.92042236 10.5014502 4.42678223 11.09985352 4.94848633 C11.70627686 5.50173584 12.3127002 6.05498535 12.9375 6.625 C13.90224243 7.48484497 13.90224243 7.48484497 14.88647461 8.36206055 C19.72671601 12.72538458 24.42797095 17.23196208 29.0625 21.8125 C29.66892334 22.40949707 30.27534668 23.00649414 30.90014648 23.62158203 C35.03678322 27.788631 38.5904944 32.22264156 42 37 C41.505 37.99 41.505 37.99 41 39 C40.33355469 38.18917969 39.66710937 37.37835938 38.98046875 36.54296875 C28.16136979 23.49500849 16.50911066 11.0191769 2 2 C2.144375 2.71542969 2.28875 3.43085938 2.4375 4.16796875 C3.86986796 11.85699952 4.2267563 19.18950511 4 27 C3.67 27 3.34 27 3 27 C2.01 18.09 1.02 9.18 0 0 Z " fill="#FDDFE9" transform="translate(493,269)"/>
<path d="M0 0 C4.02020727 3.72847542 6.85784363 7.57040536 9.6875 12.25 C10.1088623 12.93513672 10.53022461 13.62027344 10.96435547 14.32617188 C15.75327444 22.15131859 20.38730892 30.07009704 25 38 C25.74443359 36.78376953 25.74443359 36.78376953 26.50390625 35.54296875 C30.93616063 28.31847821 35.42443605 21.13502004 40 14 C40.495 14.99 40.495 14.99 41 16 C40.05957031 18.07543945 40.05957031 18.07543945 38.578125 20.61328125 C38.04703125 21.53173828 37.5159375 22.45019531 36.96875 23.39648438 C36.4015625 24.35876953 35.834375 25.32105469 35.25 26.3125 C34.69828125 27.26318359 34.1465625 28.21386719 33.578125 29.19335938 C32.06174767 31.80145548 30.53651472 34.40372237 29 37 C28.4853418 37.9283667 27.97068359 38.8567334 27.44042969 39.81323242 C26.72741699 40.89568237 26.72741699 40.89568237 26 42 C25.34 42 24.68 42 24 42 C23.49210937 41.03320312 22.98421875 40.06640625 22.4609375 39.0703125 C16.60647196 27.97342619 10.36015297 17.34500411 3.25048828 7 C0 2.2158394 0 2.2158394 0 0 Z " fill="#FCD3E9" transform="translate(487,670)"/>
<path d="M0 0 C0.66 0.33 1.32 0.66 2 1 C-15.35542156 13.91734079 -33.72726753 25.43647816 -52 37 C-51.34 35.68 -50.68 34.36 -50 33 C-49.34 33 -48.68 33 -48 33 C-48 32.34 -48 31.68 -48 31 C-47.34 31 -46.68 31 -46 31 C-45.67 30.34 -45.34 29.68 -45 29 C-43.44140625 27.9296875 -43.44140625 27.9296875 -41.5625 26.875 C-40.63630859 26.34519531 -40.63630859 26.34519531 -39.69140625 25.8046875 C-38 25 -38 25 -36 25 C-36 24.34 -36 23.68 -36 23 C-34.02 22.01 -32.04 21.02 -30 20 C-30 19.01 -30 18.02 -30 17 C-29.11465576 16.89872803 -28.22931152 16.79745605 -27.31713867 16.69311523 C-23.81283128 15.96089115 -21.8576097 14.92025179 -18.92578125 12.91015625 C-18.01119141 12.29076172 -17.09660156 11.67136719 -16.15429688 11.03320312 C-15.21650391 10.38287109 -14.27871094 9.73253906 -13.3125 9.0625 C-12.36310547 8.41603516 -11.41371094 7.76957031 -10.43554688 7.10351562 C-8.67818433 5.90582268 -6.92370311 4.70388301 -5.1730957 3.49633789 C-3.4588992 2.3159862 -1.7317243 1.15448287 0 0 Z " fill="#BA285B" transform="translate(593,672)"/>
<path d="M0 0 C2.91675062 2.43230239 3.5935337 4.43361521 4.3515625 8.11328125 C4.66867187 9.6147168 4.66867187 9.6147168 4.9921875 11.14648438 C5.20101562 12.19126953 5.40984375 13.23605469 5.625 14.3125 C5.8415625 15.34568359 6.058125 16.37886719 6.28125 17.44335938 C6.87329641 20.2921259 7.44053521 23.14468771 8 26 C8.20753906 27.00675781 8.41507813 28.01351562 8.62890625 29.05078125 C10.86035257 46.7849073 9.03187784 63.93624432 1 80 C-0.19090081 76.42729757 0.21390698 76.02254599 1.75 72.75 C10.57103401 51.58564409 7.94633701 27.81905689 0.8359375 6.51171875 C0 4 0 4 0 0 Z " fill="#FDD3E0" transform="translate(574,540)"/>
<path d="M0 0 C0.33 0 0.66 0 1 0 C1.60419437 25.24189816 -3.02379373 48.40837795 -15.66796875 70.52734375 C-16.98176619 72.96615248 -18.02253291 75.41040708 -19 78 C-19.66 78 -20.32 78 -21 78 C-19.54637372 73.16948807 -17.51477251 68.94267848 -15.1875 64.5 C-4.63541226 43.75328006 -1.4404053 22.99378703 0 0 Z " fill="#FEDFEB" transform="translate(497,296)"/>
<path d="M0 0 C1.65 0 3.3 0 5 0 C5 0.99 5 1.98 5 3 C4.34 3 3.68 3 3 3 C2.773125 3.556875 2.54625 4.11375 2.3125 4.6875 C0.62622733 7.65855185 -1.530354 9.64522125 -4 12 C-4.86625 12.9075 -5.7325 13.815 -6.625 14.75 C-9 17 -9 17 -12 18 C-12.33 18.99 -12.66 19.98 -13 21 C-14.65 20.67 -16.3 20.34 -18 20 C-18 18.68 -18 17.36 -18 16 C-15.36 16 -12.72 16 -10 16 C-10 13.36 -10 10.72 -10 8 C-8.35 8.33 -6.7 8.66 -5 9 C-3.35 6.03 -1.7 3.06 0 0 Z " fill="#E2205E" transform="translate(622,640)"/>
<path d="M0 0 C0.91058531 3.07322544 1.08886184 5.80097361 1 9 C0.01 9.33 -0.98 9.66 -2 10 C-2 10.66 -2 11.32 -2 12 C-3.32 12.33 -4.64 12.66 -6 13 C-6 14.65 -6 16.3 -6 18 C-8.35438733 19.42944945 -9.48032433 20.08661261 -12.25 19.625 C-13.11625 19.315625 -13.11625 19.315625 -14 19 C-12.27653975 15.02429055 -9.64797254 11.76440486 -7 8.375 C-6.32324219 7.49714844 -6.32324219 7.49714844 -5.6328125 6.6015625 C-3.84059403 4.28970673 -2.07048207 2.07048207 0 0 Z " fill="#F6477E" transform="translate(418,452)"/>
<path d="M0 0 C0.33 0 0.66 0 1 0 C1.51917486 8.34525522 -0.04170706 15.91038514 -2 24 C-2.66 22.68 -3.32 21.36 -4 20 C-4.99 23.3 -5.98 26.6 -7 30 C-7.99 30 -8.98 30 -10 30 C-10 28.68 -10 27.36 -10 26 C-9.34 26 -8.68 26 -8 26 C-8.33 25.01 -8.66 24.02 -9 23 C-8.67 22.34 -8.34 21.68 -8 21 C-8.66 20.34 -9.32 19.68 -10 19 C-9.34 17.68 -8.68 16.36 -8 15 C-7.34 15 -6.68 15 -6 15 C-5.67 14.34 -5.34 13.68 -5 13 C-4.01 13 -3.02 13 -2 13 C-1.34 8.71 -0.68 4.42 0 0 Z " fill="#EE5E84" transform="translate(654,576)"/>
<path d="M0 0 C0.66 0 1.32 0 2 0 C7.15927537 9.72148327 12.13245079 19.41493599 15.625 29.875 C15.8720166 30.60444824 16.1190332 31.33389648 16.37353516 32.08544922 C17.67069247 36.16725972 18.2547789 39.72239644 18 44 C14.11747527 40.11747527 13.37966138 36.78406775 12.47265625 31.5859375 C11.01542743 23.61333023 7.4900391 16.71570325 3.78076172 9.58349609 C2.13928642 6.40781634 0.76819054 3.48946478 0 0 Z " fill="#CC4E6D" transform="translate(537,314)"/>
<path d="M0 0 C0.66 1.32 1.32 2.64 2 4 C0 6 0 6 -1.91015625 6.82421875 C-4.6464768 8.36371872 -5.73522459 10.19028823 -7.4375 12.8125 C-10.00644329 16.64937668 -12.73385702 19.73385702 -16 23 C-17.26847685 25.58498512 -17.26847685 25.58498512 -18 28 C-18.33 28.66 -18.66 29.32 -19 30 C-19.99 29.67 -20.98 29.34 -22 29 C-22.2475 29.78375 -22.495 30.5675 -22.75 31.375 C-24.15389099 34.32317108 -25.00675737 34.9024777 -28 36 C-25.29022593 30.93834654 -22.31657093 26.77080543 -18.5 22.5 C-12.0920925 15.18728151 -6.02592108 7.62855967 0 0 Z " fill="#C1285B" transform="translate(562,641)"/>
<path d="M0 0 C0.33 0 0.66 0 1 0 C1.37159743 6.10245557 0.04355392 11.02494652 -1.8125 16.8125 C-2.07353516 17.65103516 -2.33457031 18.48957031 -2.60351562 19.35351562 C-3.12881895 21.04097149 -3.65760253 22.72734807 -4.18994141 24.41259766 C-5.49980159 28.59641267 -6.74999338 32.79798134 -8 37 C-8.66 37 -9.32 37 -10 37 C-10.4021875 38.3921875 -10.4021875 38.3921875 -10.8125 39.8125 C-11.94480421 42.85184289 -12.69900511 43.90073617 -15 46 C-12.43636364 37.81818182 -12.43636364 37.81818182 -10.5 34.1875 C-8.61002503 30.17130319 -7.76266213 26.1176821 -6.75 21.80859375 C-6 19 -6 19 -4.5 16.0625 C-2.02380678 11.00693885 -1.14794542 5.48734194 0 0 Z " fill="#C9486F" transform="translate(555,403)"/>
<path d="M0 0 C0.66 0.33 1.32 0.66 2 1 C2.625 4.0625 2.625 4.0625 3 7 C2.01 7.33 1.02 7.66 0 8 C0.3403125 8.8353125 0.3403125 8.8353125 0.6875 9.6875 C1.12979676 12.96049601 -0.06487514 14.41983352 -2 17 C-2.66 17 -3.32 17 -4 17 C-4.99 19.475 -4.99 19.475 -6 22 C-6.99 22 -7.98 22 -9 22 C-9.33 22.99 -9.66 23.98 -10 25 C-9.38694401 20.10513107 -7.25688818 16.24215911 -5 11.9375 C-4.26708664 10.53189518 -3.53779112 9.12439676 -2.8125 7.71484375 C-2.48894531 7.09730225 -2.16539062 6.47976074 -1.83203125 5.84350586 C-0.96285756 3.91770464 -0.45072688 2.06042507 0 0 Z " fill="#E34E76" transform="translate(489,348)"/>
<path d="M0 0 C0.99 0.33 1.98 0.66 3 1 C3.33 0.67 3.66 0.34 4 0 C5.65 0.66 7.3 1.32 9 2 C6.36165282 4.77839002 3.75984872 6.97020764 0.5234375 9.015625 C-0.311875 9.54414062 -1.1471875 10.07265625 -2.0078125 10.6171875 C-2.87148438 11.15601563 -3.73515625 11.69484375 -4.625 12.25 C-5.49640625 12.80429687 -6.3678125 13.35859375 -7.265625 13.9296875 C-13.74203356 18 -13.74203356 18 -16 18 C-16 17.34 -16 16.68 -16 16 C-15.030625 15.5875 -14.06125 15.175 -13.0625 14.75 C-9.87739901 13.35100832 -9.87739901 13.35100832 -9.125 10.8125 C-9.08375 10.214375 -9.0425 9.61625 -9 9 C-5.535 8.505 -5.535 8.505 -2 8 C-1.855625 6.865625 -1.71125 5.73125 -1.5625 4.5625 C-1 1 -1 1 0 0 Z " fill="#E31F63" transform="translate(581,672)"/>
<path d="M0 0 C0.33 0 0.66 0 1 0 C1 5.94 1 11.88 1 18 C1.99 18.33 2.98 18.66 4 19 C4 20.65 4 22.3 4 24 C4.66 24 5.32 24 6 24 C5.67 28.95 5.34 33.9 5 39 C-2.03758142 28.44362787 -0.33534164 12.12197927 0 0 Z " fill="#CD2D45" transform="translate(566,486)"/>
<path d="M0 0 C0.66 0.33 1.32 0.66 2 1 C1.30132812 1.83144531 0.60265625 2.66289062 -0.1171875 3.51953125 C-1.03653682 4.61712176 -1.95580332 5.71478165 -2.875 6.8125 C-3.33519531 7.35970703 -3.79539062 7.90691406 -4.26953125 8.47070312 C-6.31757962 10.91945661 -8.22718883 13.34078325 -10 16 C-10.66 16 -11.32 16 -12 16 C-12.22042969 16.52980469 -12.44085938 17.05960937 -12.66796875 17.60546875 C-14.47668949 20.85692275 -16.87671978 23.52432615 -19.3125 26.3125 C-22.39476846 29.88120537 -25.40609373 33.40790283 -28.0625 37.3125 C-28.701875 38.199375 -29.34125 39.08625 -30 40 C-30.66 40 -31.32 40 -32 40 C-30.48133302 36.60256975 -28.49720998 33.98381716 -26.125 31.125 C-25.32320313 30.15820312 -24.52140625 29.19140625 -23.6953125 28.1953125 C-20.31917325 24.17753135 -16.89583259 20.2002066 -13.47021484 16.22460938 C-8.88419155 10.89319124 -4.42045192 5.46975112 0 0 Z " fill="#CC4C73" transform="translate(452,408)"/>
<path d="M0 0 C2.99177605 4.48766408 2.33849697 8.77861579 2.3125 14.0625 C2.31121094 15.12984375 2.30992187 16.1971875 2.30859375 17.296875 C2.19561041 26.75358064 0.95884206 35.76545886 -1 45 C-1.33 45 -1.66 45 -2 45 C-2.02705729 43.22925083 -2.04642195 41.45838289 -2.0625 39.6875 C-2.07410156 38.70136719 -2.08570313 37.71523438 -2.09765625 36.69921875 C-2 34 -2 34 -1 31 C-0.84820986 28.6444552 -0.75100711 26.28524877 -0.68359375 23.92578125 C-0.66281265 23.2419487 -0.64203156 22.55811615 -0.62062073 21.8535614 C-0.55533846 19.6733079 -0.49633983 17.49293595 -0.4375 15.3125 C-0.39429447 13.83267014 -0.35067953 12.35285217 -0.30664062 10.87304688 C-0.19967917 7.24882378 -0.09835177 3.62446811 0 0 Z " fill="#B82847" transform="translate(653,549)"/>
<path d="M0 0 C1.61949011 2.57213134 2.04408751 3.67669159 1.625 6.75 C1.41875 7.4925 1.2125 8.235 1 9 C0.01 8.67 -0.98 8.34 -2 8 C-2.99 8.33 -3.98 8.66 -5 9 C-6.22969878 12.51190809 -6.22969878 12.51190809 -7 16 C-7.99 15.67 -8.98 15.34 -10 15 C-10.8515625 13.19140625 -10.8515625 13.19140625 -11 11 C-8.53229846 6.16664472 -4.92888103 2.31947343 0 0 Z " fill="#EA2267" transform="translate(554,656)"/>
<path d="M0 0 C0.33 0.99 0.66 1.98 1 3 C-0.37109375 5.64453125 -0.37109375 5.64453125 -2.4375 8.8125 C-3.18178329 9.97392002 -3.92389934 11.13673118 -4.6640625 12.30078125 C-5.04981445 12.90486816 -5.43556641 13.50895508 -5.83300781 14.13134766 C-7.75078538 17.20219902 -9.5325994 20.34783853 -11.3125 23.5 C-13.49647236 27.36292881 -15.69915133 31.20536957 -18 35 C-20.79872437 32.47211993 -22.45773019 30.79588866 -23 27 C-21.5 28.375 -21.5 28.375 -20 30 C-20 30.66 -20 31.32 -20 32 C-19.34 32 -18.68 32 -18 32 C-17.65195312 31.03320312 -17.65195312 31.03320312 -17.296875 30.046875 C-15.55489501 25.95427142 -13.41864539 22.1298484 -11.25 18.25 C-10.58218506 17.05044678 -10.58218506 17.05044678 -9.90087891 15.82666016 C-6.84217355 10.38045609 -3.65056502 5.07517577 0 0 Z " fill="#BC2A60" transform="translate(531,680)"/>
<path d="M0 0 C2 3 2 3 2 5 C2.66 5 3.32 5 4 5 C3.8125 6.8125 3.8125 6.8125 3 9 C-1.17857143 12 -1.17857143 12 -4 12 C-4.28875 12.7425 -4.5775 13.485 -4.875 14.25 C-5.24625 15.1575 -5.6175 16.065 -6 17 C-6.433125 18.0828125 -6.433125 18.0828125 -6.875 19.1875 C-8.26081558 21.42020287 -9.59465442 22.03786177 -12 23 C-10.93826967 19.81480902 -9.59760693 17.37970143 -7.5625 14.75 C-4.6389407 10.83173857 -3.30277321 6.67091858 -2 2 C-1.34 2 -0.68 2 0 2 C0 1.34 0 0.68 0 0 Z " fill="#E24071" transform="translate(575,618)"/>
<path d="M0 0 C0.66 0 1.32 0 2 0 C1.67515625 1.61068359 1.67515625 1.61068359 1.34375 3.25390625 C1.06215579 4.69003672 0.78092516 6.12623851 0.5 7.5625 C0.35691406 8.26697266 0.21382812 8.97144531 0.06640625 9.69726562 C-0.8068287 14.20897952 -1.00585773 18.38996731 -1 23 C-2.4375 24.625 -2.4375 24.625 -4 26 C-4.72197162 28.60611077 -4.72197162 28.60611077 -5 31 C-5.33 31 -5.66 31 -6 31 C-6.27410697 24.07704204 -5.35763631 18.23368149 -3.5625 11.5625 C-3.33240234 10.66595703 -3.10230469 9.76941406 -2.86523438 8.84570312 C-1.17801953 2.35603905 -1.17801953 2.35603905 0 0 Z " fill="#D23444" transform="translate(573,454)"/>
<path d="M0 0 C0.33 0 0.66 0 1 0 C0.96970703 0.73001221 0.93941406 1.46002441 0.90820312 2.2121582 C0.76982049 5.57884815 0.63489201 8.94566846 0.5 12.3125 C0.45230469 13.46041016 0.40460938 14.60832031 0.35546875 15.79101562 C0.0748962 22.86545205 -0.06464819 29.92012533 0 37 C-0.66 36.67 -1.32 36.34 -2 36 C-3.32635026 30.77801723 -3.11485373 25.47313503 -3.0625 20.125 C-3.05798828 19.24585938 -3.05347656 18.36671875 -3.04882812 17.4609375 C-3.03712337 15.30726197 -3.01919069 13.15362183 -3 11 C-3.33 11 -3.66 11 -4 11 C-4.1875 8.125 -4.1875 8.125 -4 5 C-3.01 4.34 -2.02 3.68 -1 3 C-0.67 2.01 -0.34 1.02 0 0 Z " fill="#CD2C6E" transform="translate(458,584)"/>
<path d="M0 0 C0.66 0.66 1.32 1.32 2 2 C1.6875 4.0625 1.6875 4.0625 1 7 C0.61809642 9.99492809 0.30753775 12.99659944 0 16 C-0.61359375 15.82597656 -1.2271875 15.65195312 -1.859375 15.47265625 C-4.2719798 14.93994607 -5.67526878 15.25276496 -8 16 C-6.42986223 10.03347646 -3.24970218 5.17090975 0 0 Z " fill="#E51F6A" transform="translate(523,696)"/>
<path d="M0 0 C0 0.99 0 1.98 0 3 C0.66 3.33 1.32 3.66 2 4 C1.67 4.99 1.34 5.98 1 7 C1.94875 7.061875 2.8975 7.12375 3.875 7.1875 C4.90625 7.455625 5.9375 7.72375 7 8 C8.375 10.5625 8.375 10.5625 9 13 C3.96796606 12.52824682 -0.19291033 10.23388741 -4 7 C-5.5 3.6875 -5.5 3.6875 -6 1 C-4 0 -4 0 0 0 Z " fill="#EF237D" transform="translate(443,673)"/>
<path d="M0 0 C1.65 0.33 3.3 0.66 5 1 C4.51203942 6.09647717 2.69361497 9.66704554 -0.0625 13.875 C-0.43955078 14.46796875 -0.81660156 15.0609375 -1.20507812 15.671875 C-2.12784796 17.12027322 -3.06270263 18.56096031 -4 20 C-4.99 19.67 -5.98 19.34 -7 19 C-6.67 18.34 -6.34 17.68 -6 17 C-6.66 16.67 -7.32 16.34 -8 16 C-7.01 16 -6.02 16 -5 16 C-4.731875 15.195625 -4.46375 14.39125 -4.1875 13.5625 C-3.795625 12.716875 -3.40375 11.87125 -3 11 C-2.01 10.67 -1.02 10.34 0 10 C0 6.7 0 3.4 0 0 Z " fill="#E8215C" transform="translate(636,616)"/>
<path d="M0 0 C1.65 0 3.3 0 5 0 C4.79375 0.5775 4.5875 1.155 4.375 1.75 C3.82318653 4.01428324 3.82318653 4.01428324 4.6875 6.1875 C5.86857414 8.18006505 5.86857414 8.18006505 8.125 8.75 C8.74375 8.8325 9.3625 8.915 10 9 C9.67 9.33 9.34 9.66 9 10 C9.66 10.33 10.32 10.66 11 11 C11.625 13.0625 11.625 13.0625 12 15 C7.09687565 15 4.38658643 11.29800369 1 8 C-0.38332804 6.37458956 -1.74462118 4.72614587 -3 3 C-2.01 3 -1.02 3 0 3 C0 2.01 0 1.02 0 0 Z " fill="#E81D70" transform="translate(495,712)"/>
<path d="M0 0 C0.66 0 1.32 0 2 0 C3.44074715 1.782129 4.80510649 3.62660276 6.125 5.5 C7.21167969 7.03140625 7.21167969 7.03140625 8.3203125 8.59375 C8.87460937 9.3878125 9.42890625 10.181875 10 11 C9.67 11.66 9.34 12.32 9 13 C6.61327331 10.03716687 4.2646629 7.05729491 2 4 C1.814375 5.6396875 1.814375 5.6396875 1.625 7.3125 C1 11 1 11 -1 14 C-1.66 14 -2.32 14 -3 14 C-3.33 14.99 -3.66 15.98 -4 17 C-3.45018084 10.95198929 -2.09570426 5.69398894 0 0 Z " fill="#D03944" transform="translate(583,420)"/>
<path d="M0 0 C0.99 0 1.98 0 3 0 C3.26554687 0.56589844 3.53109375 1.13179687 3.8046875 1.71484375 C4.15789062 2.44832031 4.51109375 3.18179688 4.875 3.9375 C5.22304688 4.66839844 5.57109375 5.39929688 5.9296875 6.15234375 C6.8684977 8.16332459 6.8684977 8.16332459 9 9 C9 9.66 9 10.32 9 11 C9.66 11.33 10.32 11.66 11 12 C11 12.66 11 13.32 11 14 C12.29352333 15.69774938 13.62517293 17.36739286 15 19 C11.26553904 17.42438827 8.71602318 15.11309178 5.8125 12.3125 C4.93207031 11.48363281 4.05164063 10.65476562 3.14453125 9.80078125 C0.5997896 6.47732084 0.25949628 4.1264997 0 0 Z " fill="#E576AB" transform="translate(397,643)"/>
<path d="M0 0 C4.09562153 3.82307118 7.17969886 7.8881044 10.25 12.5625 C10.69601562 13.22185547 11.14203125 13.88121094 11.6015625 14.56054688 C12.23964844 15.52250977 12.23964844 15.52250977 12.890625 16.50390625 C13.27250977 17.07955322 13.65439453 17.6552002 14.04785156 18.24829102 C15.07812148 20.14372349 15.56484704 21.894356 16 24 C12.91910327 21.22719294 11.31224548 18.93673644 10 15 C9.34 15 8.68 15 8 15 C7.67 15.66 7.34 16.32 7 17 C6.01 16.34 5.02 15.68 4 15 C4 14.01 4 13.02 4 12 C4.66 11.67 5.32 11.34 6 11 C5.566875 10.37351562 5.13375 9.74703125 4.6875 9.1015625 C4.130625 8.28429687 3.57375 7.46703125 3 6.625 C2.443125 5.81289063 1.88625 5.00078125 1.3125 4.1640625 C0 2 0 2 0 0 Z " fill="#F6A8B0" transform="translate(618,464)"/>
<path d="M0 0 C4.06498881 1.37184347 6.67396561 3.22068459 9.8125 6.125 C10.99779297 7.21167969 10.99779297 7.21167969 12.20703125 8.3203125 C12.79871094 8.87460937 13.39039063 9.42890625 14 10 C11 10 11 10 4 5 C4 11.93 4 18.86 4 26 C3.67 26 3.34 26 3 26 C2.86722656 24.70964844 2.73445313 23.41929687 2.59765625 22.08984375 C2.41934123 20.37238852 2.24095187 18.65494101 2.0625 16.9375 C1.97548828 16.08994141 1.88847656 15.24238281 1.79882812 14.36914062 C1.29757987 9.56087034 0.71999467 4.78050517 0 0 Z " fill="#CB5873" transform="translate(494,270)"/>
<path d="M0 0 C0.66 0.33 1.32 0.66 2 1 C1.11957031 1.80824219 0.23914063 2.61648438 -0.66796875 3.44921875 C-1.84119774 4.52858942 -3.01437191 5.60801967 -4.1875 6.6875 C-5.0547168 7.48317383 -5.0547168 7.48317383 -5.93945312 8.29492188 C-9.3724605 11.45639194 -12.72132956 14.67702321 -16 18 C-18.33333333 20.33333333 -20.66666667 22.66666667 -23 25 C-23 20.87322664 -20.8002029 19.16826067 -18.125 16.3125 C-17.43470703 15.54583008 -17.43470703 15.54583008 -16.73046875 14.76367188 C-15.53364992 13.46451637 -14.27071716 12.22697116 -13 11 C-12.34 11 -11.68 11 -11 11 C-10.67 10.01 -10.34 9.02 -10 8 C-8.36735356 6.54038617 -6.67087977 5.15093248 -4.9375 3.8125 C-4.01839844 3.09707031 -3.09929688 2.38164063 -2.15234375 1.64453125 C-1.44207031 1.10183594 -0.73179687 0.55914063 0 0 Z " fill="#FBD0E5" transform="translate(537,712)"/>
<path d="M0 0 C3.29119517 1.09706506 3.77178431 1.66553677 5.7421875 4.3515625 C6.25136719 5.03863281 6.76054688 5.72570312 7.28515625 6.43359375 C8.07212891 7.51833984 8.07212891 7.51833984 8.875 8.625 C9.65037109 9.67494141 9.65037109 9.67494141 10.44140625 10.74609375 C11.46994825 12.14252735 12.49185192 13.54387639 13.50683594 14.95019531 C14.49574218 16.30775856 15.5041654 17.65133415 16.53222656 18.97949219 C17.76411732 20.59789187 18.89228541 22.29420377 20 24 C19.67 24.99 19.34 25.98 19 27 C17.32756577 24.71234889 15.66193073 22.42026108 14 20.125 C13.52304687 19.47402344 13.04609375 18.82304687 12.5546875 18.15234375 C9 13.2265625 9 13.2265625 9 11 C8.01 10.67 7.02 10.34 6 10 C4.39453125 7.71484375 4.39453125 7.71484375 2.8125 4.9375 C2.28269531 4.01839844 1.75289062 3.09929687 1.20703125 2.15234375 C0.60955078 1.08693359 0.60955078 1.08693359 0 0 Z " fill="#C83949" transform="translate(593,434)"/>
<path d="M0 0 C2.95183101 2.95183101 3.08663988 5.95511947 4 10 C5.65 10.33 7.3 10.66 9 11 C9.33 15.29 9.66 19.58 10 24 C4.14419439 16.68024299 0.53303762 9.41699792 0 0 Z " fill="#F22D80" transform="translate(378,605)"/>
<path d="M0 0 C3.057952 1.73559438 5.63379989 3.38472619 8 6 C6.68 6 5.36 6 4 6 C3.67 10.62 3.34 15.24 3 20 C2.67 20 2.34 20 2 20 C1.66131223 17.79248152 1.32928311 15.58394089 1 13.375 C0.814375 12.14523437 0.62875 10.91546875 0.4375 9.6484375 C0.04597484 6.3833973 -0.08080924 3.28287549 0 0 Z " fill="#F65476" transform="translate(497,274)"/>
<path d="M0 0 C-0.33 1.65 -0.66 3.3 -1 5 C-1.66 5 -2.32 5 -3 5 C-3.144375 5.928125 -3.28875 6.85625 -3.4375 7.8125 C-4 11 -4 11 -5 14 C-5.99 14.33 -6.98 14.66 -8 15 C-8.91396333 6.28349788 -8.91396333 6.28349788 -6.734375 3.22265625 C-2.88586957 0 -2.88586957 0 0 0 Z " fill="#F1317C" transform="translate(468,554)"/>
<path d="M0 0 C0 3.68221788 -1.01573752 4.9583659 -2.9921875 8.03515625 C-3.61480469 9.00904297 -4.23742187 9.98292969 -4.87890625 10.98632812 C-5.53761719 12.00146484 -6.19632812 13.01660156 -6.875 14.0625 C-7.85146484 15.59100586 -7.85146484 15.59100586 -8.84765625 17.15039062 C-13.70173353 24.70173353 -13.70173353 24.70173353 -16 27 C-14.97317452 21.18132229 -14.06776753 16.70804293 -9.57421875 12.6328125 C-5.91405372 8.83641304 -3.03500505 4.30021807 0 0 Z " fill="#C83D6F" transform="translate(491,517)"/>
<path d="M0 0 C4.60428934 1.31551124 8.18320388 3.09196486 12 6 C12 6.66 12 7.32 12 8 C12.58265625 8.11214844 13.1653125 8.22429688 13.765625 8.33984375 C16.20310657 9.06000876 17.7250586 10.04379395 19.75 11.5625 C20.36359375 12.01753906 20.9771875 12.47257813 21.609375 12.94140625 C22.06828125 13.29074219 22.5271875 13.64007812 23 14 C22.67 14.99 22.34 15.98 22 17 C21.24976563 16.43152344 20.49953125 15.86304688 19.7265625 15.27734375 C13.82213897 10.82299905 7.88596901 6.4697148 1.765625 2.3125 C1.18296875 1.879375 0.6003125 1.44625 0 1 C0 0.67 0 0.34 0 0 Z " fill="#C2316D" transform="translate(463,696)"/>
<path d="M0 0 C5.81610635 1.18696048 10.12325702 3.36911856 14 8 C14 8.99 14 9.98 14 11 C14.99 11.33 15.98 11.66 17 12 C16.01 12.495 16.01 12.495 15 13 C13.05710718 11.59027312 11.12085734 10.17270125 9.1875 8.75 C8.64029297 8.35425781 8.09308594 7.95851563 7.52929688 7.55078125 C4.4921581 5.30513925 2.07206244 3.16989201 0 0 Z " fill="#E38BB6" transform="translate(412,662)"/>
<path d="M0 0 C2.09782787 2.09782787 2.6509396 3.3799207 3.625 6.125 C4.01558594 7.21167969 4.01558594 7.21167969 4.4140625 8.3203125 C4.70410156 9.15175781 4.70410156 9.15175781 5 10 C5.66 10 6.32 10 7 10 C7.91657981 15.38490641 8.11138159 20.54230189 8 26 C6.02717953 23.0407693 5.36276148 20.67136704 4.5703125 17.25 C3.97613292 14.90583948 3.23209134 12.6584858 2.4375 10.375 C1.25749169 6.93628891 0.46387786 3.61824732 0 0 Z " fill="#CC2C4B" transform="translate(571,526)"/>
<path d="M0 0 C0.33 0 0.66 0 1 0 C1 4.29 1 8.58 1 13 C-0.98 13 -2.96 13 -5 13 C-5.6796875 11.296875 -5.6796875 11.296875 -6 9 C-4.8203125 6.640625 -4.8203125 6.640625 -3.125 4.25 C-2.57070313 3.45078125 -2.01640625 2.6515625 -1.4453125 1.828125 C-0.96835937 1.22484375 -0.49140625 0.6215625 0 0 Z " fill="#F7437F" transform="translate(395,483)"/>
<path d="M0 0 C0.66 0 1.32 0 2 0 C3.1484375 1.609375 3.1484375 1.609375 4.375 3.75 C5.84827182 6.21989687 7.07877174 8.07877174 9.125 10.125 C11.50266446 12.50266446 12.7221251 14.9061976 14 18 C13.67 18.66 13.34 19.32 13 20 C11.66666667 18.33333333 10.33333333 16.66666667 9 15 C8.34 14.195625 7.68 13.39125 7 12.5625 C0.68862275 4.4760479 0.68862275 4.4760479 0 0 Z " fill="#DB6A77" transform="translate(626,479)"/>
<path d="M0 0 C0.66 1.32 1.32 2.64 2 4 C1.34 4 0.68 4 0 4 C0 4.66 0 5.32 0 6 C-0.66 6 -1.32 6 -2 6 C-1.67 6.99 -1.34 7.98 -1 9 C-1.33 9.66 -1.66 10.32 -2 11 C-2.07181821 13.71760108 -2.09299506 16.40859388 -2.0625 19.125 C-2.05798828 19.87910156 -2.05347656 20.63320313 -2.04882812 21.41015625 C-2.03703499 23.27347127 -2.01909942 25.13674555 -2 27 C-2.66 27 -3.32 27 -4 27 C-4.22644569 23.75099666 -4.42797517 20.50090961 -4.625 17.25 C-4.68945312 16.32960938 -4.75390625 15.40921875 -4.8203125 14.4609375 C-4.871875 13.57148438 -4.9234375 12.68203125 -4.9765625 11.765625 C-5.02893066 10.94868164 -5.08129883 10.13173828 -5.13525391 9.29003906 C-4.89165868 5.16562897 -2.98218594 2.71107813 0 0 Z " fill="#F0374E" transform="translate(571,477)"/>
<path d="M0 0 C3.78088942 3.3607906 5.89295768 6.4217906 8.01953125 10.99609375 C9.42298502 13.86450722 11.17064258 16.38663226 13 19 C12.67 19.66 12.34 20.32 12 21 C9 17.25 9 17.25 9 15 C8.34 15 7.68 15 7 15 C5.98133771 13.34467377 4.98189187 11.67739862 4 10 C3.34 9.67 2.68 9.34 2 9 C1.3671875 6.93359375 1.3671875 6.93359375 0.875 4.4375 C0.70742188 3.61121094 0.53984375 2.78492188 0.3671875 1.93359375 C0.24601563 1.29550781 0.12484375 0.65742188 0 0 Z " fill="#D76474" transform="translate(612,456)"/>
<path d="M0 0 C1.7604322 5.2812966 -1.7250114 10.15554458 -4 15 C-5.50535616 17.87486311 -7.05754213 20.71015944 -8.66796875 23.52734375 C-9.98176619 25.96615248 -11.02253291 28.41040708 -12 31 C-12.66 31 -13.32 31 -14 31 C-12.51899356 26.09130339 -10.46245704 21.72415415 -8.125 17.1875 C-5.24574432 11.52270764 -2.50423397 5.84321261 0 0 Z " fill="#FACEDE" transform="translate(490,343)"/>
<path d="M0 0 C2.5 2.25 2.5 2.25 5 5 C5 6.32 5 7.64 5 9 C3.00045254 9.04254356 0.99958364 9.04080783 -1 9 C-2 8 -2 8 -2.0625 4.4375 C-2.041875 3.303125 -2.02125 2.16875 -2 1 C-1.34 0.67 -0.68 0.34 0 0 Z " fill="#F0207B" transform="translate(478,663)"/>
<path d="M0 0 C0.66 0 1.32 0 2 0 C1.67 3.63 1.34 7.26 1 11 C-0.98 11 -2.96 11 -5 11 C-4.46968862 6.4923533 -2.74778884 3.58045212 0 0 Z " fill="#E81F6B" transform="translate(530,685)"/>
<path d="M0 0 C1.32 0.99 2.64 1.98 4 3 C2.73171494 7.54468815 1.01327164 10.40351449 -2 14 C-2.33 14.99 -2.66 15.98 -3 17 C-3.66 17 -4.32 17 -5 17 C-5.33 15.35 -5.66 13.7 -6 12 C-4.68 11.67 -3.36 11.34 -2 11 C-1.34 7.37 -0.68 3.74 0 0 Z " fill="#F23B49" transform="translate(584,423)"/>
<path d="M0 0 C3.80641601 1.46778772 7.46539044 3.13521108 11.125 4.9375 C12.67574219 5.69353516 12.67574219 5.69353516 14.2578125 6.46484375 C16.64498687 7.80125334 18.22748243 8.9524366 20 11 C11.71926839 9.91400241 6.32856756 6.3822397 0 1 C0 0.67 0 0.34 0 0 Z " fill="#DE7AA8" transform="translate(429,675)"/>
<path d="M0 0 C2.6244603 2.3745117 4.50692877 4.77810946 6 8 C5.1875 10.3125 5.1875 10.3125 4 12 C1 11 1 11 -0.1875 8.75 C-1.00525547 5.98221224 -1.23885231 3.86622776 -1 1 C-0.67 0.67 -0.34 0.34 0 0 Z " fill="#F22279" transform="translate(461,636)"/>
<path d="M0 0 C5.99328859 5.67785235 5.99328859 5.67785235 7 9 C6.625 12.25 6.625 12.25 6 15 C5.34 13.68 4.68 12.36 4 11 C3.34 11 2.68 11 2 11 C1.664061 9.5422647 1.33133376 8.08378894 1 6.625 C0.814375 5.81289063 0.62875 5.00078125 0.4375 4.1640625 C0 2 0 2 0 0 Z " fill="#CD2D70" transform="translate(495,685)"/>
<path d="M0 0 C3.96189783 4.23513217 5.43181728 8.547001 7 14 C5.35 14 3.7 14 2 14 C1.855625 12.865625 1.71125 11.73125 1.5625 10.5625 C1.38828522 7.19222799 1.38828522 7.19222799 0 6 C-0.04080783 4.00041636 -0.04254356 1.99954746 0 0 Z " fill="#EF2B48" transform="translate(636,498)"/>
<path d="M0 0 C0.66 0 1.32 0 2 0 C3.98 3.63 5.96 7.26 8 11 C6.02 11 4.04 11 2 11 C1.34 10.34 0.68 9.68 0 9 C0 6 0 6 1 5 C0.67 5 0.34 5 0 5 C0 3.35 0 1.7 0 0 Z " fill="#F32D47" transform="translate(628,485)"/>
<path d="M0 0 C3.14619868 6.04617311 5.53165598 12.08847232 5 19 C0.66787355 14.66787355 -0.50575052 9.96006729 -1 4 C-0.54296875 1.69140625 -0.54296875 1.69140625 0 0 Z " fill="#DC4E74" transform="translate(550,339)"/>
<path d="M0 0 C2.64 0 5.28 0 8 0 C7.875 1.75 7.875 1.75 7 4 C3.9375 6.25 3.9375 6.25 1 8 C0.40267181 5.23735711 0 2.83967231 0 0 Z " fill="#E31F69" transform="translate(524,712)"/>
<path d="M0 0 C2.32590854 3.63423209 2.16265833 6.77088331 2 11 C-2.75 10.125 -2.75 10.125 -5 9 C-3.7508258 5.54074837 -2.32472205 2.85306797 0 0 Z " fill="#F84C7A" transform="translate(474,381)"/>
<path d="M0 0 C0 0.66 0 1.32 0 2 C-1.57421875 3.33203125 -1.57421875 3.33203125 -3.6875 4.8125 C-7.1191796 7.30167605 -10.07473752 9.91661523 -13 13 C-14.66666667 14.66666667 -16.33333333 16.33333333 -18 18 C-17.55738627 13.64591613 -14.68327622 11.30925961 -11.6875 8.4375 C-11.20087891 7.95603516 -10.71425781 7.47457031 -10.21289062 6.97851562 C-3.08079006 0 -3.08079006 0 0 0 Z " fill="#B92B5F" transform="translate(535,713)"/>
<path d="M0 0 C1.6415049 3.2830098 0.51888624 6.42545033 0 10 C-0.7425 9.938125 -1.485 9.87625 -2.25 9.8125 C-5.45383006 10.03094296 -6.64031256 10.90250005 -9 13 C-7.50923566 9.7173068 -5.61379679 7.06922559 -3.375 4.25 C-2.74335938 3.45078125 -2.11171875 2.6515625 -1.4609375 1.828125 C-0.97882813 1.22484375 -0.49671875 0.6215625 0 0 Z " fill="#F84D7E" transform="translate(468,390)"/>
<path d="M0 0 C7.67825581 3.33374617 13.96738243 10.45759716 19 17 C16 17 16 17 14.02734375 15.06640625 C13.33769531 14.24011719 12.64804687 13.41382813 11.9375 12.5625 C9.34718131 9.30534425 9.34718131 9.30534425 6 7 C6 6.34 6 5.68 6 5 C5.38125 4.731875 4.7625 4.46375 4.125 4.1875 C2 3 2 3 0 0 Z " fill="#F7C6DD" transform="translate(492,719)"/>
<path d="M0 0 C0.99 0 1.98 0 3 0 C2.43454163 3.95820859 1.19097652 6.6659053 -1 10 C-2.65 9.67 -4.3 9.34 -6 9 C-6 7 -6 7 -3.5625 4.5 C-2.716875 3.675 -1.87125 2.85 -1 2 C-0.67 1.34 -0.34 0.68 0 0 Z " fill="#E81E67" transform="translate(540,670)"/>
<path d="M0 0 C-0.99 2.31 -1.98 4.62 -3 7 C-1.68 7.66 -0.36 8.32 1 9 C1 9.66 1 10.32 1 11 C1.66 11 2.32 11 3 11 C2.67 11.66 2.34 12.32 2 13 C-5.68490153 7.08315098 -5.68490153 7.08315098 -7 2.5625 C-7 1.716875 -7 0.87125 -7 0 C-2.25 -1.125 -2.25 -1.125 0 0 Z " fill="#ED2580" transform="translate(412,650)"/>
<path d="M0 0 C0.33 0 0.66 0 1 0 C1.0289337 3.79165074 1.04677601 7.58327327 1.0625 11.375 C1.07087891 12.45523438 1.07925781 13.53546875 1.08789062 14.6484375 C1.09111328 15.6796875 1.09433594 16.7109375 1.09765625 17.7734375 C1.10289307 18.72653809 1.10812988 19.67963867 1.11352539 20.66162109 C1 23 1 23 0 25 C-0.66 24.67 -1.32 24.34 -2 24 C-2 21 -2 21 -1.5625 18.1875 C-0.6506403 12.169226 -0.3956294 6.0691233 0 0 Z " fill="#EF2D7D" transform="translate(455,591)"/>
<path d="M0 0 C3 1 3 1 5 4 C4.625 6.1875 4.625 6.1875 4 8 C1 8 1 8 -2 7 C-2 5.02 -2 3.04 -2 1 C-1.34 0.67 -0.68 0.34 0 0 Z " fill="#F43148" transform="translate(614,465)"/>
<path d="M0 0 C1.9375 0.1875 1.9375 0.1875 4 1 C5.375 2.8125 5.375 2.8125 6 5 C5.125 7.25 5.125 7.25 4 9 C3.67 8.34 3.34 7.68 3 7 C2.01 7.66 1.02 8.32 0 9 C-1 8 -1 8 -1.125 4.5 C-1 1 -1 1 0 0 Z " fill="#F44A77" transform="translate(550,354)"/>
<path d="M0 0 C0.33 0 0.66 0 1 0 C1.02686553 1.97909398 1.04633375 3.95828971 1.0625 5.9375 C1.07410156 7.03964844 1.08570313 8.14179688 1.09765625 9.27734375 C1 12 1 12 0 13 C0.33 13.99 0.66 14.98 1 16 C0.071875 16.12375 0.071875 16.12375 -0.875 16.25 C-3.18437567 16.81258459 -3.18437567 16.81258459 -4.25 19.0625 C-4.4975 19.701875 -4.745 20.34125 -5 21 C-4.47349547 17.7356719 -3.58988725 14.73516605 -2.5 11.625 C-1.16190597 7.72820909 -0.435254 4.09138763 0 0 Z " fill="#F9507B" transform="translate(497,326)"/>
<path d="M0 0 C4.75 0.75 4.75 0.75 7 3 C6.21625 3.763125 5.4325 4.52625 4.625 5.3125 C1.92742283 7.90891805 1.92742283 7.90891805 0 11 C-0.99 10.34 -1.98 9.68 -3 9 C-2.505 8.62875 -2.01 8.2575 -1.5 7.875 C0.59755514 5.25305607 0.21743835 3.26157528 0 0 Z " fill="#DE1C65" transform="translate(516,720)"/>
<path d="M0 0 C0.33 0.66 0.66 1.32 1 2 C0.14883791 4.43189168 -0.84845643 6.69691285 -2 9 C-2.99 8.67 -3.98 8.34 -5 8 C-5.2475 8.78375 -5.495 9.5675 -5.75 10.375 C-7.15389099 13.32317108 -8.00675737 13.9024777 -11 15 C-8.0173737 9.2733575 -4.37705843 4.73361656 0 0 Z " fill="#C63368" transform="translate(545,662)"/>
<path d="M0 0 C3 2 3 2 3.6875 4.625 C3.790625 5.40875 3.89375 6.1925 4 7 C6.31 7.33 8.62 7.66 11 8 C10.67 8.99 10.34 9.98 10 11 C8.68 10.67 7.36 10.34 6 10 C5.67 10.66 5.34 11.32 5 12 C1 6.375 1 6.375 1 3 C0.01 2.67 -0.98 2.34 -2 2 C-1.34 2 -0.68 2 0 2 C0 1.34 0 0.68 0 0 Z " fill="#F52782" transform="translate(399,640)"/>
<path d="M0 0 C1.98 0.495 1.98 0.495 4 1 C4.33 3.31 4.66 5.62 5 8 C3.02 8.33 1.04 8.66 -1 9 C-0.67 6.03 -0.34 3.06 0 0 Z " fill="#F54B74" transform="translate(533,311)"/>
<path d="M0 0 C4.455 0.99 4.455 0.99 9 2 C9.33 4.31 9.66 6.62 10 9 C9.34 9 8.68 9 8 9 C8 8.34 8 7.68 8 7 C7.4225 6.71125 6.845 6.4225 6.25 6.125 C4.16666667 5.08333333 2.08333333 4.04166667 0 3 C0 2.01 0 1.02 0 0 Z " fill="#EA2075" transform="translate(467,695)"/>
<path d="M0 0 C0.66 0 1.32 0 2 0 C5.2 6.27692308 5.2 6.27692308 4.1875 9.9375 C3.795625 10.618125 3.40375 11.29875 3 12 C2.34 12 1.68 12 1 12 C0.63762737 10.37681021 0.28534843 8.7513642 -0.0625 7.125 C-0.25972656 6.22007812 -0.45695312 5.31515625 -0.66015625 4.3828125 C-1 2 -1 2 0 0 Z " fill="#F43385" transform="translate(375,592)"/>
<path d="M0 0 C0.33 0 0.66 0 1 0 C1.29785422 5.6666765 0.31081409 10.08825729 -1.5 15.4375 C-1.73847656 16.16904297 -1.97695313 16.90058594 -2.22265625 17.65429688 C-2.80596172 19.4392116 -3.40169935 21.22005557 -4 23 C-4.33 23 -4.66 23 -5 23 C-5.36578128 18.2448433 -4.37691207 14.72393938 -2.80078125 10.32421875 C-1.63184738 6.93145947 -0.82508603 3.49074858 0 0 Z " fill="#C43D65" transform="translate(555,403)"/>
<path d="M0 0 C1.65 0.33 3.3 0.66 5 1 C2.53846154 6.66153846 2.53846154 6.66153846 -0.1875 8.375 C-0.785625 8.58125 -1.38375 8.7875 -2 9 C-2.66 8.34 -3.32 7.68 -4 7 C-3.34 6.67 -2.68 6.34 -2 6 C-1.27306096 4.02111039 -0.60183749 2.02045442 0 0 Z " fill="#D52560" transform="translate(597,664)"/>
<path d="M0 0 C0.33 1.32 0.66 2.64 1 4 C0.34 4 -0.32 4 -1 4 C-1.0825 4.680625 -1.165 5.36125 -1.25 6.0625 C-2.40696487 10.59394574 -4.18028759 14.83740596 -8.25 17.4375 C-8.8275 17.623125 -9.405 17.80875 -10 18 C-8.67619417 14.02858252 -6.70230689 11.10022764 -4.2421875 7.78125 C-2.52984685 5.32581813 -1.25630206 2.71096759 0 0 Z " fill="#C22E5C" transform="translate(573,623)"/>
<path d="M0 0 C0.99 0.33 1.98 0.66 3 1 C1.6062718 5.43458973 -0.60582235 7.87378374 -4 11 C-3.34 9.35 -2.68 7.7 -2 6 C-2.33 6.33 -2.66 6.66 -3 7 C-3.66 6.67 -4.32 6.34 -5 6 C-5 4.35 -5 2.7 -5 1 C-3.68 1.33 -2.36 1.66 -1 2 C-1 2.66 -1 3.32 -1 4 C-0.34 4 0.32 4 1 4 C0.67 2.68 0.34 1.36 0 0 Z " fill="#F63B7C" transform="translate(490,512)"/>
<path d="M0 0 C0.33 0 0.66 0 1 0 C0.67 2.97 0.34 5.94 0 9 C-0.99 8.67 -1.98 8.34 -3 8 C-3.33 6.35 -3.66 4.7 -4 3 C-3.01 2.67 -2.02 2.34 -1 2 C-0.67 1.34 -0.34 0.68 0 0 Z M-5 8 C-4.34 8 -3.68 8 -3 8 C-3 9.98 -3 11.96 -3 14 C-5 10.25 -5 10.25 -5 8 Z " fill="#F53180" transform="translate(457,581)"/>
<path d="M0 0 C0.598125 0.20625 1.19625 0.4125 1.8125 0.625 C2.1425 2.935 2.4725 5.245 2.8125 7.625 C2.1525 7.625 1.4925 7.625 0.8125 7.625 C0.8125 6.965 0.8125 6.305 0.8125 5.625 C-1.1675 4.965 -3.1475 4.305 -5.1875 3.625 C-5.1875 2.965 -5.1875 2.305 -5.1875 1.625 C-2.1875 -0.375 -2.1875 -0.375 0 0 Z " fill="#EE2077" transform="translate(462.1875,688.375)"/>
<path d="M0 0 C0.33 0.66 0.66 1.32 1 2 C0.65066406 2.45890625 0.30132813 2.9178125 -0.05859375 3.390625 C-0.74115234 4.31101562 -0.74115234 4.31101562 -1.4375 5.25 C-1.88996094 5.85328125 -2.34242188 6.4565625 -2.80859375 7.078125 C-4.03900997 9.06292756 -4.56112668 10.71987655 -5 13 C-7 10 -7 10 -6.4375 7.0625 C-4.81351568 3.60270732 -3.12182884 2.13598815 0 0 Z " fill="#F0407B" transform="translate(520,476)"/>
<path d="M0 0 C3 1 3 1 5 4 C5.125 7.1875 5.125 7.1875 5 10 C1.125 8.25 1.125 8.25 0 6 C-0.039992 4.00039988 -0.04346799 1.99952758 0 0 Z " fill="#D1276B" transform="translate(502,698)"/>
<path d="M0 0 C0.66 0.33 1.32 0.66 2 1 C2 2.98 2 4.96 2 7 C-1.36591866 5.55746343 -3.51047079 3.66735273 -6 1 C-4 0 -4 0 0 0 Z " fill="#EF257E" transform="translate(426,664)"/>
<path d="M0 0 C4 4.75 4 4.75 4 7 C3.34 7 2.68 7 2 7 C1.87625 7.804375 1.7525 8.60875 1.625 9.4375 C1.41875 10.283125 1.2125 11.12875 1 12 C0.01 12.495 0.01 12.495 -1 13 C-1.33 11.68 -1.66 10.36 -2 9 C-1.01 8.67 -0.02 8.34 1 8 C0.67 5.36 0.34 2.72 0 0 Z " fill="#EA2176" transform="translate(492,682)"/>
<path d="M0 0 C3.75376152 1.25125384 4.24073289 2.5652404 6 6 C6 6.66 6 7.32 6 8 C4.33388095 8.042721 2.66617115 8.04063832 1 8 C0 7 0 7 -0.0625 3.4375 C-0.041875 2.303125 -0.02125 1.16875 0 0 Z " fill="#ED1E77" transform="translate(484,672)"/>
<path d="M0 0 C1.66666667 0.66666667 3.33333333 1.33333333 5 2 C6.2684375 2.495 6.2684375 2.495 7.5625 3 C9.770342 3.90578133 11.88247425 4.90202369 14 6 C13.67 6.66 13.34 7.32 13 8 C7.91353417 6.7792482 4.20353067 5.28080442 0 2 C0 1.34 0 0.68 0 0 Z " fill="#CF2E73" transform="translate(426,671)"/>
<path d="M0 0 C1.32 0.33 2.64 0.66 4 1 C3.45859375 1.88751953 3.45859375 1.88751953 2.90625 2.79296875 C2.4421875 3.58316406 1.978125 4.37335937 1.5 5.1875 C1.0359375 5.96480469 0.571875 6.74210938 0.09375 7.54296875 C-1.10729647 10.24103386 -1.20741043 12.0806982 -1 15 C-1.66 14.34 -2.32 13.68 -3 13 C-2.64638402 8.4029922 -1.58012426 4.31900631 0 0 Z " fill="#CA2958" transform="translate(579,608)"/>
<path d="M0 0 C3.68226803 2.6920783 3.96586572 6.46416493 4.6875 10.6875 C4.88182617 11.7403418 4.88182617 11.7403418 5.08007812 12.81445312 C5.39721261 14.54107423 5.70001797 16.27031635 6 18 C5.34 18 4.68 18 4 18 C3.32678716 15.75194998 2.66165877 13.50147776 2 11.25 C1.62875 9.99703125 1.2575 8.7440625 0.875 7.453125 C0 4 0 4 0 0 Z " fill="#F1B5C2" transform="translate(574,540)"/>
<path d="M0 0 C3.10190545 4.65285818 4.33846504 9.41532676 4 15 C1.83900627 12.83900627 1.28436284 11.4789582 0.3125 8.625 C0.04050781 7.85414063 -0.23148438 7.08328125 -0.51171875 6.2890625 C-1.04278009 3.79944692 -0.81115526 2.38446982 0 0 Z " fill="#F12952" transform="translate(648,530)"/>
<path d="M0 0 C0.99 0.33 1.98 0.66 3 1 C3.6875 3.0625 3.6875 3.0625 4 5 C4.99 4.67 5.98 4.34 7 4 C7 5.65 7 7.3 7 9 C5.68 9.33 4.36 9.66 3 10 C0 3.375 0 3.375 0 0 Z " fill="#F23053" transform="translate(573,528)"/>
<path d="M0 0 C4.95 0.99 4.95 0.99 10 2 C9.01 2.495 9.01 2.495 8 3 C8 3.66 8 4.32 8 5 C9.98 5.66 11.96 6.32 14 7 C14 7.66 14 8.32 14 9 C10.40241608 7.67726488 7.36262865 6.0805802 4.1875 3.9375 C3.39730469 3.41027344 2.60710937 2.88304687 1.79296875 2.33984375 C1.20128906 1.89769531 0.60960937 1.45554687 0 1 C0 0.67 0 0.34 0 0 Z " fill="#C82B6E" transform="translate(449,687)"/>
<path d="M0 0 C2.62901914 2.35838482 4.14649342 4.80122977 5.75 7.9375 C6.19859375 8.79214844 6.6471875 9.64679688 7.109375 10.52734375 C8.08377402 13.23258313 8.00579304 14.35672682 7 17 C5.82866942 14.54379149 4.66278278 12.08525083 3.5 9.625 C3.16613281 8.92632812 2.83226562 8.22765625 2.48828125 7.5078125 C0 2.2265625 0 2.2265625 0 0 Z " fill="#C13344" transform="translate(635,493)"/>
<path d="M0 0 C1.65 0 3.3 0 5 0 C5.33 1.32 5.66 2.64 6 4 C3.525 5.485 3.525 5.485 1 7 C0.34 6.34 -0.32 5.68 -1 5 C-0.625 2.375 -0.625 2.375 0 0 Z " fill="#E31F65" transform="translate(558,688)"/>
<path d="M0 0 C0.625 1.8125 0.625 1.8125 1 4 C-1.32835924 7.49253886 -3.74274862 9.38003693 -7 12 C-6.38801624 8.56049636 -5.07941153 6.48435515 -2.9375 3.75 C-2.38964844 3.04359375 -1.84179688 2.3371875 -1.27734375 1.609375 C-0.85582031 1.07828125 -0.43429687 0.5471875 0 0 Z " fill="#F34880" transform="translate(403,471)"/>
<path d="M0 0 C3.2910841 3.60957611 4.54663921 6.12637153 5 11 C3.35 11 1.7 11 0 11 C0.33 10.01 0.66 9.02 1 8 C0.90731495 5.93381251 0.90731495 5.93381251 0.5625 3.8125 C0.376875 2.554375 0.19125 1.29625 0 0 Z " fill="#F94D78" transform="translate(541,324)"/>
<path d="M0 0 C2.55803184 3.83704776 4.34505724 7.75712791 3.625 12.4375 C3.41875 12.953125 3.2125 13.46875 3 14 C2.34 13.67 1.68 13.34 1 13 C0.5859375 11.07421875 0.5859375 11.07421875 0.375 8.6875 C0.30023437 7.90761719 0.22546875 7.12773438 0.1484375 6.32421875 C0.014041 4.21985253 0 2.10865351 0 0 Z " fill="#ED2C49" transform="translate(644,515)"/>
<path d="M0 0 C1.98 0 3.96 0 6 0 C3.525 3.465 3.525 3.465 1 7 C0.34 6.34 -0.32 5.68 -1 5 C-0.625 2.375 -0.625 2.375 0 0 Z " fill="#F13C7A" transform="translate(501,496)"/>
<path d="M0 0 C0.66 0 1.32 0 2 0 C2.33 1.32 2.66 2.64 3 4 C0.03 6.475 0.03 6.475 -3 9 C-3 5.30581799 -1.71820705 3.22163822 0 0 Z " fill="#F84979" transform="translate(480,370)"/>
<path d="M0 0 C2.48830503 2.48830503 3.30825691 4.8677934 4.625 8.125 C5.07101562 9.22070312 5.51703125 10.31640625 5.9765625 11.4453125 C6.31429688 12.28835938 6.65203125 13.13140625 7 14 C4 13 4 13 2.375 10.9375 C0.62536246 7.19963799 0.34777908 4.10379314 0 0 Z " fill="#C73875" transform="translate(460,628)"/>
<path d="M0 0 C0.33 0 0.66 0 1 0 C1.33 2.31 1.66 4.62 2 7 C0.02 7.99 0.02 7.99 -2 9 C-2.6875 6.75 -2.6875 6.75 -3 4 C-1.625 1.6875 -1.625 1.6875 0 0 Z " fill="#F2267B" transform="translate(457,621)"/>
<path d="M0 0 C0.33 0.99 0.66 1.98 1 3 C-0.65234375 5.91796875 -0.65234375 5.91796875 -2.9375 9.1875 C-3.32357422 9.74630859 -3.70964844 10.30511719 -4.10742188 10.88085938 C-5.06242753 12.26031198 -6.03004093 13.63102056 -7 15 C-7.33 14.34 -7.66 13.68 -8 13 C-6.85546875 10.72265625 -6.85546875 10.72265625 -5.1875 8.0625 C-4.37345703 6.74958984 -4.37345703 6.74958984 -3.54296875 5.41015625 C-2.38069361 3.59465305 -1.19575343 1.79363014 0 0 Z " fill="#C84370" transform="translate(395,480)"/>
<path d="M0 0 C0.33 0.99 0.66 1.98 1 3 C-1.3125 5.5 -1.3125 5.5 -4 8 C-4.99 8 -5.98 8 -7 8 C-6.21366078 6.85050412 -5.42073742 5.70551011 -4.625 4.5625 C-4.18414062 3.92441406 -3.74328125 3.28632813 -3.2890625 2.62890625 C-2 1 -2 1 0 0 Z " fill="#F64B7E" transform="translate(442,423)"/>
<path d="M0 0 C0.66 0 1.32 0 2 0 C3.44074715 1.782129 4.80510649 3.62660276 6.125 5.5 C7.21167969 7.03140625 7.21167969 7.03140625 8.3203125 8.59375 C8.87460937 9.3878125 9.42890625 10.181875 10 11 C9.67 11.66 9.34 12.32 9 13 C8.443125 12.29875 7.88625 11.5975 7.3125 10.875 C6.10092631 9.3687192 4.88412646 7.86574426 3.62109375 6.40234375 C0 2.20352564 0 2.20352564 0 0 Z " fill="#BD3F4B" transform="translate(583,420)"/>
<path d="M0 0 C3.68377179 1.22792393 4.29785789 2.82911332 6.08203125 6.14453125 C7.18998593 8.38401412 8.14622424 10.65211667 9 13 C5.41193683 9.61127367 2.54315201 6.23858668 0 2 C0 1.34 0 0.68 0 0 Z " fill="#C22F70" transform="translate(388,632)"/>
<path d="M0 0 C5.80205656 5.64524422 5.80205656 5.64524422 8 9 C8 9.66 8 10.32 8 11 C7.01 10.67 6.02 10.34 5 10 C4.3125 7.9375 4.3125 7.9375 4 6 C3.34 6 2.68 6 2 6 C1.34 4.02 0.68 2.04 0 0 Z " fill="#D1506E" transform="translate(528,301)"/>
<path d="M0 0 C4.59306496 1.4859916 7.43569245 3.85014682 11 7 C10.67 7.99 10.34 8.98 10 10 C8.33037631 8.52417192 6.6643694 7.04425109 5 5.5625 C4.071875 4.73878906 3.14375 3.91507812 2.1875 3.06640625 C1.465625 2.38449219 0.74375 1.70257813 0 1 C0 0.67 0 0.34 0 0 Z " fill="#F9CDD6" transform="translate(500,273)"/>
<path d="M0 0 C1.32 0.33 2.64 0.66 4 1 C2.02 3.97 2.02 3.97 0 7 C-0.99 6.67 -1.98 6.34 -3 6 C-2 3 -2 3 0 0 Z " fill="#BF2E65" transform="translate(513,730)"/>
<path d="M0 0 C3 4 3 4 2.85546875 7.015625 C2.63503906 8.08296875 2.41460938 9.1503125 2.1875 10.25 C1.97480469 11.32765625 1.76210938 12.4053125 1.54296875 13.515625 C1.36378906 14.33546875 1.18460938 15.1553125 1 16 C0.67 16 0.34 16 0 16 C0 10.72 0 5.44 0 0 Z " fill="#DD2C56" transform="translate(584,572)"/>
<path d="M0 0 C2.78388975 1.70625501 3.85384206 2.47626739 4.75 5.6875 C4.8325 6.450625 4.915 7.21375 5 8 C3.35 7.67 1.7 7.34 0 7 C0.2784375 6.1028125 0.2784375 6.1028125 0.5625 5.1875 C1.22093687 2.83591238 1.22093687 2.83591238 0 0 Z " fill="#E55273" transform="translate(524,296)"/>
<path d="M0 0 C1.98 0.495 1.98 0.495 4 1 C4 1.66 4 2.32 4 3 C4.66 3 5.32 3 6 3 C5.67 4.32 5.34 5.64 5 7 C4.67 6.34 4.34 5.68 4 5 C1.98330173 3.86649466 1.98330173 3.86649466 0 3 C0 2.01 0 1.02 0 0 Z " fill="#E41D68" transform="translate(507,727)"/>
<path d="M0 0 C1.15941038 3.47823115 0.70820884 5.45895578 0 9 C-1.32 9.33 -2.64 9.66 -4 10 C-3.43454163 6.04179141 -2.19097652 3.3340947 0 0 Z " fill="#E82764" transform="translate(571,630)"/>
<path d="M0 0 C0.66 0 1.32 0 2 0 C1.67 1.32 1.34 2.64 1 4 C0.34 4 -0.32 4 -1 4 C-1.0825 4.61875 -1.165 5.2375 -1.25 5.875 C-2 8 -2 8 -4.0625 9.25 C-4.701875 9.4975 -5.34125 9.745 -6 10 C-4.34643078 6.41726669 -2.32019297 3.19026533 0 0 Z " fill="#F94E80" transform="translate(457,403)"/>
<path d="M0 0 C0.33 0 0.66 0 1 0 C0.88541307 1.43836751 0.75790884 2.87570966 0.625 4.3125 C0.55539062 5.11300781 0.48578125 5.91351563 0.4140625 6.73828125 C0 9 0 9 -2 12 C-2.33 9.69 -2.66 7.38 -3 5 C-2.01 4.67 -1.02 4.34 0 4 C0 2.68 0 1.36 0 0 Z " fill="#F74276" transform="translate(554,402)"/>
<path d="M0 0 C1.32 0.66 2.64 1.32 4 2 C-0.95 4.97 -0.95 4.97 -6 8 C-5.34 6.68 -4.68 5.36 -4 4 C-3.34 4 -2.68 4 -2 4 C-2 3.34 -2 2.68 -2 2 C-1.34 2 -0.68 2 0 2 C0 1.34 0 0.68 0 0 Z " fill="#BE2960" transform="translate(547,701)"/>
<path d="M0 0 C1.65 0 3.3 0 5 0 C5.33 1.65 5.66 3.3 6 5 C4.125 4.75 4.125 4.75 2 4 C0.75 1.9375 0.75 1.9375 0 0 Z " fill="#E51B66" transform="translate(533,705)"/>
<path d="M0 0 C1.98 0.66 3.96 1.32 6 2 C5.67 3.98 5.34 5.96 5 8 C4.34 6.68 3.68 5.36 3 4 C2.34 4 1.68 4 1 4 C0.67 2.68 0.34 1.36 0 0 Z " fill="#DA1E6A" transform="translate(496,692)"/>
<path d="M0 0 C0.33 0 0.66 0 1 0 C1 1.98 1 3.96 1 6 C-0.32 6 -1.64 6 -3 6 C-2.42655063 3.13275314 -2.1385485 2.1385485 0 0 Z " fill="#E91E62" transform="translate(547,665)"/>
<path d="M0 0 C4.67692308 1.47692308 4.67692308 1.47692308 6.3125 4.125 C6.539375 4.74375 6.76625 5.3625 7 6 C7.66 6 8.32 6 9 6 C8.67 6.66 8.34 7.32 8 8 C6.66372225 6.85760183 5.33104612 5.71098945 4 4.5625 C3.2575 3.92441406 2.515 3.28632812 1.75 2.62890625 C1.1725 2.09136719 0.595 1.55382812 0 1 C0 0.67 0 0.34 0 0 Z " fill="#C53072" transform="translate(406,655)"/>
<path d="M0 0 C0.33 0 0.66 0 1 0 C1.125 7.75 1.125 7.75 0 10 C-0.66 10 -1.32 10 -2 10 C-1.54177532 6.53058454 -1.10868317 3.32604951 0 0 Z " fill="#D83F6F" transform="translate(549,422)"/>
<path d="M0 0 C0 4.03223106 -1.64129026 5.80880447 -4 9 C-4.99 9.495 -4.99 9.495 -6 10 C-4.6302836 6.00499382 -2.74277578 3.19990508 0 0 Z " fill="#C94B6F" transform="translate(471,383)"/>
<path d="M0 0 C0.33 0.66 0.66 1.32 1 2 C-0.25 4.5625 -0.25 4.5625 -2 7 C-2.99 7.33 -3.98 7.66 -5 8 C-4.67 6.35 -4.34 4.7 -4 3 C-3.34 3 -2.68 3 -2 3 C-1.34 2.01 -0.68 1.02 0 0 Z " fill="#C82A5E" transform="translate(605,661)"/>
<path d="M0 0 C0.66 0 1.32 0 2 0 C0.70700306 2.88437779 -0.65941363 4.87219421 -3 7 C-3.66 6.67 -4.32 6.34 -5 6 C-3.38405168 3.95880212 -1.7143618 1.95927063 0 0 Z " fill="#E52264" transform="translate(560,646)"/>
<path d="M0 0 C0.33 0.99 0.66 1.98 1 3 C-0.40445835 5.2636564 -2.1967913 7.0208685 -4 9 C-4.33 8.34 -4.66 7.68 -5 7 C-3.35 4.69 -1.7 2.38 0 0 Z " fill="#C9376A" transform="translate(497,508)"/>
<path d="M0 0 C1.5625 1.125 1.5625 1.125 3 3 C2.6875 6.1875 2.6875 6.1875 2 9 C1.34 8.67 0.68 8.34 0 8 C0 5.36 0 2.72 0 0 Z " fill="#F02F45" transform="translate(620,471)"/>
<path d="M0 0 C0.33 0.66 0.66 1.32 1 2 C0.33333333 3.33333333 -0.33333333 4.66666667 -1 6 C-0.67 6.66 -0.34 7.32 0 8 C-1.32 7.67 -2.64 7.34 -4 7 C-2.92598892 4.08482708 -2.22189824 2.22189824 0 0 Z " fill="#F84B7F" transform="translate(447,416)"/>
</svg>
